<?xml version="1.0" encoding="UTF-8" standalone="no"?>
<!DOCTYPE svg PUBLIC "-//W3C//DTD SVG 1.1//EN"
 "http://www.w3.org/Graphics/SVG/1.1/DTD/svg11.dtd">
<!-- Generated by graphviz version 11.0.0 (20240428.1522)
 -->
<!-- Title: 3_13_17 Pages: 1 -->
<svg width="354pt" height="412pt"
 viewBox="0.00 0.00 353.66 411.95" xmlns="http://www.w3.org/2000/svg" xmlns:xlink="http://www.w3.org/1999/xlink">
<g id="graph0" class="graph" transform="scale(1 1) rotate(0) translate(4 407.95)">
<title>3_13_17</title>
<polygon fill="white" stroke="none" points="-4,4 -4,-407.95 349.66,-407.95 349.66,4 -4,4"/>
<!-- 1 -->
<g id="node1" class="node">
<title>1</title>
<ellipse fill="lightgrey" stroke="black" cx="28.83" cy="-18" rx="28.83" ry="18"/>
<text text-anchor="middle" x="28.83" y="-12.95" font-family="Times,serif" font-size="14.00">(0,0)</text>
</g>
<!-- 2 -->
<g id="node2" class="node">
<title>2</title>
<ellipse fill="none" stroke="black" cx="28.83" cy="-90" rx="28.83" ry="18"/>
<text text-anchor="middle" x="28.83" y="-84.95" font-family="Times,serif" font-size="14.00">(0,1)</text>
</g>
<!-- 2&#45;&gt;1 -->
<g id="edge1" class="edge">
<title>2&#45;&gt;1</title>
<path fill="none" stroke="black" d="M28.83,-71.83C28.83,-64.47 28.83,-55.78 28.83,-47.55"/>
<polygon fill="black" stroke="black" points="28.83,-37.63 33.33,-47.63 28.83,-41.41 28.83,-47.63 28.83,-47.63 28.83,-47.63 28.83,-41.41 24.33,-47.63 28.83,-37.63"/>
</g>
<!-- 3 -->
<g id="node3" class="node">
<title>3</title>
<ellipse fill="none" stroke="black" cx="28.83" cy="-162" rx="28.83" ry="18"/>
<text text-anchor="middle" x="28.83" y="-156.95" font-family="Times,serif" font-size="14.00">(0,2)</text>
</g>
<!-- 3&#45;&gt;2 -->
<g id="edge3" class="edge">
<title>3&#45;&gt;2</title>
<path fill="none" stroke="black" d="M28.83,-143.83C28.83,-136.47 28.83,-127.78 28.83,-119.55"/>
<polygon fill="black" stroke="black" points="28.83,-109.63 33.33,-119.63 28.83,-113.41 28.83,-119.63 28.83,-119.63 28.83,-119.63 28.83,-113.41 24.33,-119.63 28.83,-109.63"/>
</g>
<!-- 4 -->
<g id="node4" class="node">
<title>4</title>
<ellipse fill="none" stroke="black" cx="28.83" cy="-234" rx="28.83" ry="18"/>
<text text-anchor="middle" x="28.83" y="-228.95" font-family="Times,serif" font-size="14.00">(0,3)</text>
</g>
<!-- 4&#45;&gt;3 -->
<g id="edge7" class="edge">
<title>4&#45;&gt;3</title>
<path fill="none" stroke="black" d="M28.83,-215.83C28.83,-208.47 28.83,-199.78 28.83,-191.55"/>
<polygon fill="black" stroke="black" points="28.83,-181.63 33.33,-191.63 28.83,-185.41 28.83,-191.63 28.83,-191.63 28.83,-191.63 28.83,-185.41 24.33,-191.63 28.83,-181.63"/>
</g>
<!-- 5 -->
<g id="node5" class="node">
<title>5</title>
<ellipse fill="none" stroke="black" cx="28.83" cy="-306" rx="28.83" ry="18"/>
<text text-anchor="middle" x="28.83" y="-300.95" font-family="Times,serif" font-size="14.00">(0,4)</text>
</g>
<!-- 5&#45;&gt;4 -->
<g id="edge14" class="edge">
<title>5&#45;&gt;4</title>
<path fill="none" stroke="black" d="M28.83,-287.83C28.83,-280.47 28.83,-271.78 28.83,-263.55"/>
<polygon fill="black" stroke="black" points="28.83,-253.63 33.33,-263.63 28.83,-257.41 28.83,-263.63 28.83,-263.63 28.83,-263.63 28.83,-257.41 24.33,-263.63 28.83,-253.63"/>
</g>
<!-- 6 -->
<g id="node6" class="node">
<title>6</title>
<ellipse fill="lightgrey" stroke="black" cx="100.83" cy="-18" rx="28.83" ry="18"/>
<text text-anchor="middle" x="100.83" y="-12.95" font-family="Times,serif" font-size="14.00">(1,0)</text>
</g>
<!-- 6&#45;&gt;1 -->
<g id="edge2" class="edge">
<title>6&#45;&gt;1</title>
<path fill="none" stroke="black" d="M71.55,-18C70.7,-18 69.85,-18 68.99,-18"/>
<polygon fill="black" stroke="black" points="59.08,-18 69.08,-13.5 62.86,-18 69.08,-18 69.08,-18 69.08,-18 62.86,-18 69.08,-22.5 59.08,-18"/>
</g>
<!-- 7 -->
<g id="node7" class="node">
<title>7</title>
<ellipse fill="lightgrey" stroke="black" cx="100.83" cy="-90" rx="28.83" ry="18"/>
<text text-anchor="middle" x="100.83" y="-84.95" font-family="Times,serif" font-size="14.00">(1,1)</text>
</g>
<!-- 7&#45;&gt;2 -->
<g id="edge4" class="edge">
<title>7&#45;&gt;2</title>
<path fill="none" stroke="black" d="M71.55,-90C70.7,-90 69.85,-90 68.99,-90"/>
<polygon fill="black" stroke="black" points="59.08,-90 69.08,-85.5 62.86,-90 69.08,-90 69.08,-90 69.08,-90 62.86,-90 69.08,-94.5 59.08,-90"/>
</g>
<!-- 7&#45;&gt;6 -->
<g id="edge5" class="edge">
<title>7&#45;&gt;6</title>
<path fill="none" stroke="black" d="M100.83,-71.83C100.83,-64.47 100.83,-55.78 100.83,-47.55"/>
<polygon fill="black" stroke="black" points="100.83,-37.63 105.33,-47.63 100.83,-41.41 100.83,-47.63 100.83,-47.63 100.83,-47.63 100.83,-41.41 96.33,-47.63 100.83,-37.63"/>
</g>
<!-- 8 -->
<g id="node8" class="node">
<title>8</title>
<ellipse fill="lightgrey" stroke="black" cx="100.83" cy="-162" rx="28.83" ry="18"/>
<text text-anchor="middle" x="100.83" y="-156.95" font-family="Times,serif" font-size="14.00">(1,2)</text>
</g>
<!-- 8&#45;&gt;3 -->
<!-- 8&#45;&gt;7 -->
<g id="edge10" class="edge">
<title>8&#45;&gt;7</title>
<path fill="none" stroke="black" d="M100.83,-143.83C100.83,-136.47 100.83,-127.78 100.83,-119.55"/>
<polygon fill="black" stroke="black" points="100.83,-109.63 105.33,-119.63 100.83,-113.41 100.83,-119.63 100.83,-119.63 100.83,-119.63 100.83,-113.41 96.33,-119.63 100.83,-109.63"/>
</g>
<!-- 9 -->
<g id="node9" class="node">
<title>9</title>
<ellipse fill="none" stroke="black" cx="100.83" cy="-234" rx="28.83" ry="18"/>
<text text-anchor="middle" x="100.83" y="-228.95" font-family="Times,serif" font-size="14.00">(1,3)</text>
</g>
<!-- 9&#45;&gt;4 -->
<!-- 9&#45;&gt;8 -->
<g id="edge17" class="edge">
<title>9&#45;&gt;8</title>
<path fill="none" stroke="black" d="M100.83,-215.83C100.83,-208.47 100.83,-199.78 100.83,-191.55"/>
<polygon fill="black" stroke="black" points="100.83,-181.63 105.33,-191.63 100.83,-185.41 100.83,-191.63 100.83,-191.63 100.83,-191.63 100.83,-185.41 96.33,-191.63 100.83,-181.63"/>
</g>
<!-- 10 -->
<g id="node10" class="node">
<title>10</title>
<ellipse fill="none" stroke="black" cx="100.83" cy="-306" rx="28.83" ry="18"/>
<text text-anchor="middle" x="100.83" y="-300.95" font-family="Times,serif" font-size="14.00">(1,4)</text>
</g>
<!-- 10&#45;&gt;5 -->
<!-- 10&#45;&gt;9 -->
<g id="edge26" class="edge">
<title>10&#45;&gt;9</title>
<path fill="none" stroke="black" d="M100.83,-287.83C100.83,-280.47 100.83,-271.78 100.83,-263.55"/>
<polygon fill="black" stroke="black" points="100.83,-253.63 105.33,-263.63 100.83,-257.41 100.83,-263.63 100.83,-263.63 100.83,-263.63 100.83,-257.41 96.33,-263.63 100.83,-253.63"/>
</g>
<!-- 11 -->
<g id="node11" class="node">
<title>11</title>
<ellipse fill="none" stroke="black" cx="100.83" cy="-378" rx="28.83" ry="18"/>
<text text-anchor="middle" x="100.83" y="-372.95" font-family="Times,serif" font-size="14.00">(1,5)</text>
</g>
<!-- 11&#45;&gt;10 -->
<g id="edge34" class="edge">
<title>11&#45;&gt;10</title>
<path fill="none" stroke="black" d="M100.83,-359.83C100.83,-352.47 100.83,-343.78 100.83,-335.55"/>
<polygon fill="black" stroke="black" points="100.83,-325.63 105.33,-335.63 100.83,-329.41 100.83,-335.63 100.83,-335.63 100.83,-335.63 100.83,-329.41 96.33,-335.63 100.83,-325.63"/>
</g>
<!-- 12 -->
<g id="node12" class="node">
<title>12</title>
<ellipse fill="none" stroke="black" cx="172.83" cy="-18" rx="28.83" ry="18"/>
<text text-anchor="middle" x="172.83" y="-12.95" font-family="Times,serif" font-size="14.00">(2,0)</text>
</g>
<!-- 12&#45;&gt;6 -->
<g id="edge6" class="edge">
<title>12&#45;&gt;6</title>
<path fill="none" stroke="black" d="M143.55,-18C142.7,-18 141.85,-18 140.99,-18"/>
<polygon fill="black" stroke="black" points="131.08,-18 141.08,-13.5 134.86,-18 141.08,-18 141.08,-18 141.08,-18 134.86,-18 141.08,-22.5 131.08,-18"/>
</g>
<!-- 13 -->
<g id="node13" class="node">
<title>13</title>
<ellipse fill="lightgrey" stroke="black" cx="172.83" cy="-90" rx="28.83" ry="18"/>
<text text-anchor="middle" x="172.83" y="-84.95" font-family="Times,serif" font-size="14.00">(2,1)</text>
</g>
<!-- 13&#45;&gt;7 -->
<g id="edge11" class="edge">
<title>13&#45;&gt;7</title>
<path fill="none" stroke="black" d="M143.55,-90C142.7,-90 141.85,-90 140.99,-90"/>
<polygon fill="black" stroke="black" points="131.08,-90 141.08,-85.5 134.86,-90 141.08,-90 141.08,-90 141.08,-90 134.86,-90 141.08,-94.5 131.08,-90"/>
</g>
<!-- 13&#45;&gt;12 -->
<g id="edge12" class="edge">
<title>13&#45;&gt;12</title>
<path fill="none" stroke="black" d="M172.83,-71.83C172.83,-64.47 172.83,-55.78 172.83,-47.55"/>
<polygon fill="black" stroke="black" points="172.83,-37.63 177.33,-47.63 172.83,-41.41 172.83,-47.63 172.83,-47.63 172.83,-47.63 172.83,-41.41 168.33,-47.63 172.83,-37.63"/>
</g>
<!-- 14 -->
<g id="node14" class="node">
<title>14</title>
<ellipse fill="lightgrey" stroke="black" cx="172.83" cy="-162" rx="28.83" ry="18"/>
<text text-anchor="middle" x="172.83" y="-156.95" font-family="Times,serif" font-size="14.00">(2,2)</text>
</g>
<!-- 14&#45;&gt;3 -->
<g id="edge9" class="edge">
<title>14&#45;&gt;3</title>
<path fill="none" stroke="black" d="M149.37,-172.88C135.55,-178.32 117.55,-183.76 100.83,-183.76 88.03,-183.76 74.48,-180.57 62.63,-176.63"/>
<polygon fill="black" stroke="black" points="53.44,-173.29 64.38,-172.48 57,-174.59 62.84,-176.71 62.84,-176.71 62.84,-176.71 57,-174.59 61.3,-180.94 53.44,-173.29"/>
</g>
<!-- 14&#45;&gt;8 -->
<g id="edge18" class="edge">
<title>14&#45;&gt;8</title>
<path fill="none" stroke="black" d="M143.55,-162C142.7,-162 141.85,-162 140.99,-162"/>
<polygon fill="black" stroke="black" points="131.08,-162 141.08,-157.5 134.86,-162 141.08,-162 141.08,-162 141.08,-162 134.86,-162 141.08,-166.5 131.08,-162"/>
</g>
<!-- 14&#45;&gt;13 -->
<g id="edge19" class="edge">
<title>14&#45;&gt;13</title>
<path fill="none" stroke="black" d="M172.83,-143.83C172.83,-136.47 172.83,-127.78 172.83,-119.55"/>
<polygon fill="black" stroke="black" points="172.83,-109.63 177.33,-119.63 172.83,-113.41 172.83,-119.63 172.83,-119.63 172.83,-119.63 172.83,-113.41 168.33,-119.63 172.83,-109.63"/>
</g>
<!-- 15 -->
<g id="node15" class="node">
<title>15</title>
<ellipse fill="lightgrey" stroke="black" cx="172.83" cy="-234" rx="28.83" ry="18"/>
<text text-anchor="middle" x="172.83" y="-228.95" font-family="Times,serif" font-size="14.00">(2,3)</text>
</g>
<!-- 15&#45;&gt;9 -->
<g id="edge27" class="edge">
<title>15&#45;&gt;9</title>
<path fill="none" stroke="black" d="M143.55,-234C142.7,-234 141.85,-234 140.99,-234"/>
<polygon fill="black" stroke="black" points="131.08,-234 141.08,-229.5 134.86,-234 141.08,-234 141.08,-234 141.08,-234 134.86,-234 141.08,-238.5 131.08,-234"/>
</g>
<!-- 15&#45;&gt;14 -->
<g id="edge28" class="edge">
<title>15&#45;&gt;14</title>
<path fill="none" stroke="black" d="M172.83,-215.83C172.83,-208.47 172.83,-199.78 172.83,-191.55"/>
<polygon fill="black" stroke="black" points="172.83,-181.63 177.33,-191.63 172.83,-185.41 172.83,-191.63 172.83,-191.63 172.83,-191.63 172.83,-185.41 168.33,-191.63 172.83,-181.63"/>
</g>
<!-- 16 -->
<g id="node16" class="node">
<title>16</title>
<ellipse fill="lightgrey" stroke="black" cx="172.83" cy="-306" rx="28.83" ry="18"/>
<text text-anchor="middle" x="172.83" y="-300.95" font-family="Times,serif" font-size="14.00">(2,4)</text>
</g>
<!-- 16&#45;&gt;10 -->
<!-- 16&#45;&gt;15 -->
<g id="edge37" class="edge">
<title>16&#45;&gt;15</title>
<path fill="none" stroke="black" d="M172.83,-287.83C172.83,-280.47 172.83,-271.78 172.83,-263.55"/>
<polygon fill="black" stroke="black" points="172.83,-253.63 177.33,-263.63 172.83,-257.41 172.83,-263.63 172.83,-263.63 172.83,-263.63 172.83,-257.41 168.33,-263.63 172.83,-253.63"/>
</g>
<!-- 17 -->
<g id="node17" class="node">
<title>17</title>
<ellipse fill="none" stroke="black" cx="172.83" cy="-378" rx="28.83" ry="18"/>
<text text-anchor="middle" x="172.83" y="-372.95" font-family="Times,serif" font-size="14.00">(2,5)</text>
</g>
<!-- 17&#45;&gt;11 -->
<!-- 17&#45;&gt;16 -->
<g id="edge44" class="edge">
<title>17&#45;&gt;16</title>
<path fill="none" stroke="black" d="M172.83,-359.83C172.83,-352.47 172.83,-343.78 172.83,-335.55"/>
<polygon fill="black" stroke="black" points="172.83,-325.63 177.33,-335.63 172.83,-329.41 172.83,-335.63 172.83,-335.63 172.83,-335.63 172.83,-329.41 168.33,-335.63 172.83,-325.63"/>
</g>
<!-- 18 -->
<g id="node18" class="node">
<title>18</title>
<ellipse fill="none" stroke="black" cx="244.83" cy="-18" rx="28.83" ry="18"/>
<text text-anchor="middle" x="244.83" y="-12.95" font-family="Times,serif" font-size="14.00">(3,0)</text>
</g>
<!-- 18&#45;&gt;12 -->
<g id="edge13" class="edge">
<title>18&#45;&gt;12</title>
<path fill="none" stroke="black" d="M215.55,-18C214.7,-18 213.85,-18 212.99,-18"/>
<polygon fill="black" stroke="black" points="203.08,-18 213.08,-13.5 206.86,-18 213.08,-18 213.08,-18 213.08,-18 206.86,-18 213.08,-22.5 203.08,-18"/>
</g>
<!-- 19 -->
<g id="node19" class="node">
<title>19</title>
<ellipse fill="lightgrey" stroke="black" cx="244.83" cy="-90" rx="28.83" ry="18"/>
<text text-anchor="middle" x="244.83" y="-84.95" font-family="Times,serif" font-size="14.00">(3,1)</text>
</g>
<!-- 19&#45;&gt;13 -->
<g id="edge20" class="edge">
<title>19&#45;&gt;13</title>
<path fill="none" stroke="black" d="M215.55,-90C214.7,-90 213.85,-90 212.99,-90"/>
<polygon fill="black" stroke="black" points="203.08,-90 213.08,-85.5 206.86,-90 213.08,-90 213.08,-90 213.08,-90 206.86,-90 213.08,-94.5 203.08,-90"/>
</g>
<!-- 19&#45;&gt;18 -->
<!-- 20 -->
<g id="node20" class="node">
<title>20</title>
<ellipse fill="lightgrey" stroke="black" cx="244.83" cy="-162" rx="28.83" ry="18"/>
<text text-anchor="middle" x="244.83" y="-156.95" font-family="Times,serif" font-size="14.00">(3,2)</text>
</g>
<!-- 20&#45;&gt;14 -->
<g id="edge29" class="edge">
<title>20&#45;&gt;14</title>
<path fill="none" stroke="black" d="M215.55,-162C214.7,-162 213.85,-162 212.99,-162"/>
<polygon fill="black" stroke="black" points="203.08,-162 213.08,-157.5 206.86,-162 213.08,-162 213.08,-162 213.08,-162 206.86,-162 213.08,-166.5 203.08,-162"/>
</g>
<!-- 20&#45;&gt;18 -->
<g id="edge22" class="edge">
<title>20&#45;&gt;18</title>
<path fill="none" stroke="black" d="M232.17,-145.54C222.69,-131.56 211.35,-110.54 211.35,-90 211.35,-73.63 218.55,-56.96 226.28,-43.78"/>
<polygon fill="black" stroke="black" points="231.52,-35.49 229.98,-46.34 229.5,-38.68 226.18,-43.94 226.18,-43.94 226.18,-43.94 229.5,-38.68 222.38,-41.53 231.52,-35.49"/>
</g>
<!-- 20&#45;&gt;19 -->
<g id="edge30" class="edge">
<title>20&#45;&gt;19</title>
<path fill="none" stroke="black" d="M244.83,-143.83C244.83,-136.47 244.83,-127.78 244.83,-119.55"/>
<polygon fill="black" stroke="black" points="244.83,-109.63 249.33,-119.63 244.83,-113.41 244.83,-119.63 244.83,-119.63 244.83,-119.63 244.83,-113.41 240.33,-119.63 244.83,-109.63"/>
</g>
<!-- 21 -->
<g id="node21" class="node">
<title>21</title>
<ellipse fill="lightgrey" stroke="black" cx="244.83" cy="-234" rx="28.83" ry="18"/>
<text text-anchor="middle" x="244.83" y="-228.95" font-family="Times,serif" font-size="14.00">(3,3)</text>
</g>
<!-- 21&#45;&gt;4 -->
<g id="edge16" class="edge">
<title>21&#45;&gt;4</title>
<path fill="none" stroke="black" d="M218.81,-242.52C211.61,-244.81 203.77,-247.25 196.51,-249.38 186.05,-252.45 183.63,-254.33 172.83,-255.76 141.11,-259.95 132.56,-259.95 100.83,-255.76 88.67,-254.15 75.73,-250.79 64.23,-247.18"/>
<polygon fill="black" stroke="black" points="54.87,-244.08 65.78,-242.95 58.46,-245.27 64.36,-247.23 64.36,-247.23 64.36,-247.23 58.46,-245.27 62.95,-251.5 54.87,-244.08"/>
</g>
<!-- 21&#45;&gt;15 -->
<g id="edge38" class="edge">
<title>21&#45;&gt;15</title>
<path fill="none" stroke="black" d="M215.55,-234C214.7,-234 213.85,-234 212.99,-234"/>
<polygon fill="black" stroke="black" points="203.08,-234 213.08,-229.5 206.86,-234 213.08,-234 213.08,-234 213.08,-234 206.86,-234 213.08,-238.5 203.08,-234"/>
</g>
<!-- 21&#45;&gt;20 -->
<g id="edge39" class="edge">
<title>21&#45;&gt;20</title>
<path fill="none" stroke="black" d="M244.83,-215.83C244.83,-208.47 244.83,-199.78 244.83,-191.55"/>
<polygon fill="black" stroke="black" points="244.83,-181.63 249.33,-191.63 244.83,-185.41 244.83,-191.63 244.83,-191.63 244.83,-191.63 244.83,-185.41 240.33,-191.63 244.83,-181.63"/>
</g>
<!-- 22 -->
<g id="node22" class="node">
<title>22</title>
<ellipse fill="lightgrey" stroke="black" cx="244.83" cy="-306" rx="28.83" ry="18"/>
<text text-anchor="middle" x="244.83" y="-300.95" font-family="Times,serif" font-size="14.00">(3,4)</text>
</g>
<!-- 22&#45;&gt;10 -->
<g id="edge36" class="edge">
<title>22&#45;&gt;10</title>
<path fill="none" stroke="black" d="M221.37,-316.88C207.55,-322.32 189.55,-327.76 172.83,-327.76 160.03,-327.76 146.48,-324.57 134.63,-320.63"/>
<polygon fill="black" stroke="black" points="125.44,-317.29 136.38,-316.48 129,-318.59 134.84,-320.71 134.84,-320.71 134.84,-320.71 129,-318.59 133.3,-324.94 125.44,-317.29"/>
</g>
<!-- 22&#45;&gt;16 -->
<g id="edge45" class="edge">
<title>22&#45;&gt;16</title>
<path fill="none" stroke="black" d="M215.55,-306C214.7,-306 213.85,-306 212.99,-306"/>
<polygon fill="black" stroke="black" points="203.08,-306 213.08,-301.5 206.86,-306 213.08,-306 213.08,-306 213.08,-306 206.86,-306 213.08,-310.5 203.08,-306"/>
</g>
<!-- 22&#45;&gt;21 -->
<g id="edge46" class="edge">
<title>22&#45;&gt;21</title>
<path fill="none" stroke="black" d="M244.83,-287.83C244.83,-280.47 244.83,-271.78 244.83,-263.55"/>
<polygon fill="black" stroke="black" points="244.83,-253.63 249.33,-263.63 244.83,-257.41 244.83,-263.63 244.83,-263.63 244.83,-263.63 244.83,-257.41 240.33,-263.63 244.83,-253.63"/>
</g>
<!-- 23 -->
<g id="node23" class="node">
<title>23</title>
<ellipse fill="lightgrey" stroke="black" cx="244.83" cy="-378" rx="28.83" ry="18"/>
<text text-anchor="middle" x="244.83" y="-372.95" font-family="Times,serif" font-size="14.00">(3,5)</text>
</g>
<!-- 23&#45;&gt;17 -->
<g id="edge49" class="edge">
<title>23&#45;&gt;17</title>
<path fill="none" stroke="black" d="M215.55,-378C214.7,-378 213.85,-378 212.99,-378"/>
<polygon fill="black" stroke="black" points="203.08,-378 213.08,-373.5 206.86,-378 213.08,-378 213.08,-378 213.08,-378 206.86,-378 213.08,-382.5 203.08,-378"/>
</g>
<!-- 23&#45;&gt;22 -->
<g id="edge50" class="edge">
<title>23&#45;&gt;22</title>
<path fill="none" stroke="black" d="M244.83,-359.83C244.83,-352.47 244.83,-343.78 244.83,-335.55"/>
<polygon fill="black" stroke="black" points="244.83,-325.63 249.33,-335.63 244.83,-329.41 244.83,-335.63 244.83,-335.63 244.83,-335.63 244.83,-329.41 240.33,-335.63 244.83,-325.63"/>
</g>
<!-- 24 -->
<g id="node24" class="node">
<title>24</title>
<ellipse fill="none" stroke="black" cx="316.83" cy="-18" rx="28.83" ry="18"/>
<text text-anchor="middle" x="316.83" y="-12.95" font-family="Times,serif" font-size="14.00">(4,0)</text>
</g>
<!-- 24&#45;&gt;18 -->
<g id="edge23" class="edge">
<title>24&#45;&gt;18</title>
<path fill="none" stroke="black" d="M287.55,-18C286.7,-18 285.85,-18 284.99,-18"/>
<polygon fill="black" stroke="black" points="275.08,-18 285.08,-13.5 278.86,-18 285.08,-18 285.08,-18 285.08,-18 278.86,-18 285.08,-22.5 275.08,-18"/>
</g>
<!-- 25 -->
<g id="node25" class="node">
<title>25</title>
<ellipse fill="none" stroke="black" cx="316.83" cy="-90" rx="28.83" ry="18"/>
<text text-anchor="middle" x="316.83" y="-84.95" font-family="Times,serif" font-size="14.00">(4,1)</text>
</g>
<!-- 25&#45;&gt;19 -->
<g id="edge31" class="edge">
<title>25&#45;&gt;19</title>
<path fill="none" stroke="black" d="M287.55,-90C286.7,-90 285.85,-90 284.99,-90"/>
<polygon fill="black" stroke="black" points="275.08,-90 285.08,-85.5 278.86,-90 285.08,-90 285.08,-90 285.08,-90 278.86,-90 285.08,-94.5 275.08,-90"/>
</g>
<!-- 25&#45;&gt;24 -->
<!-- 26 -->
<g id="node26" class="node">
<title>26</title>
<ellipse fill="lightgrey" stroke="black" cx="316.83" cy="-162" rx="28.83" ry="18"/>
<text text-anchor="middle" x="316.83" y="-156.95" font-family="Times,serif" font-size="14.00">(4,2)</text>
</g>
<!-- 26&#45;&gt;20 -->
<g id="edge40" class="edge">
<title>26&#45;&gt;20</title>
<path fill="none" stroke="black" d="M287.55,-162C286.7,-162 285.85,-162 284.99,-162"/>
<polygon fill="black" stroke="black" points="275.08,-162 285.08,-157.5 278.86,-162 285.08,-162 285.08,-162 285.08,-162 278.86,-162 285.08,-166.5 275.08,-162"/>
</g>
<!-- 26&#45;&gt;25 -->
<g id="edge41" class="edge">
<title>26&#45;&gt;25</title>
<path fill="none" stroke="black" d="M316.83,-143.83C316.83,-136.47 316.83,-127.78 316.83,-119.55"/>
<polygon fill="black" stroke="black" points="316.83,-109.63 321.33,-119.63 316.83,-113.41 316.83,-119.63 316.83,-119.63 316.83,-119.63 316.83,-113.41 312.33,-119.63 316.83,-109.63"/>
</g>
<!-- 27 -->
<g id="node27" class="node">
<title>27</title>
<ellipse fill="lightgrey" stroke="black" cx="316.83" cy="-234" rx="28.83" ry="18"/>
<text text-anchor="middle" x="316.83" y="-228.95" font-family="Times,serif" font-size="14.00">(4,3)</text>
</g>
<!-- 27&#45;&gt;21 -->
<g id="edge47" class="edge">
<title>27&#45;&gt;21</title>
<path fill="none" stroke="black" d="M287.55,-234C286.7,-234 285.85,-234 284.99,-234"/>
<polygon fill="black" stroke="black" points="275.08,-234 285.08,-229.5 278.86,-234 285.08,-234 285.08,-234 285.08,-234 278.86,-234 285.08,-238.5 275.08,-234"/>
</g>
<!-- 27&#45;&gt;24 -->
<g id="edge33" class="edge">
<title>27&#45;&gt;24</title>
<path fill="none" stroke="black" d="M306.34,-217.01C298.26,-202.87 287.76,-181.92 283.35,-162 276.44,-130.75 276.44,-121.25 283.35,-90 286.83,-74.28 294.1,-57.92 300.98,-44.77"/>
<polygon fill="black" stroke="black" points="305.75,-36.06 304.89,-47 303.93,-39.38 300.95,-44.83 300.95,-44.83 300.95,-44.83 303.93,-39.38 297,-42.67 305.75,-36.06"/>
</g>
<!-- 27&#45;&gt;26 -->
<g id="edge48" class="edge">
<title>27&#45;&gt;26</title>
<path fill="none" stroke="black" d="M316.83,-215.83C316.83,-208.47 316.83,-199.78 316.83,-191.55"/>
<polygon fill="black" stroke="black" points="316.83,-181.63 321.33,-191.63 316.83,-185.41 316.83,-191.63 316.83,-191.63 316.83,-191.63 316.83,-185.41 312.33,-191.63 316.83,-181.63"/>
</g>
<!-- 28 -->
<g id="node28" class="node">
<title>28</title>
<ellipse fill="lightgrey" stroke="black" cx="316.83" cy="-306" rx="28.83" ry="18"/>
<text text-anchor="middle" x="316.83" y="-300.95" font-family="Times,serif" font-size="14.00">(4,4)</text>
</g>
<!-- 28&#45;&gt;5 -->
<g id="edge25" class="edge">
<title>28&#45;&gt;5</title>
<path fill="none" stroke="black" d="M290.81,-314.52C283.61,-316.81 275.77,-319.25 268.51,-321.38 196.95,-342.39 174.76,-337.53 100.83,-327.76 88.67,-326.15 75.73,-322.79 64.23,-319.18"/>
<polygon fill="black" stroke="black" points="54.87,-316.08 65.78,-314.95 58.46,-317.27 64.36,-319.23 64.36,-319.23 64.36,-319.23 58.46,-317.27 62.95,-323.5 54.87,-316.08"/>
</g>
<!-- 28&#45;&gt;22 -->
<g id="edge51" class="edge">
<title>28&#45;&gt;22</title>
<path fill="none" stroke="black" d="M287.55,-306C286.7,-306 285.85,-306 284.99,-306"/>
<polygon fill="black" stroke="black" points="275.08,-306 285.08,-301.5 278.86,-306 285.08,-306 285.08,-306 285.08,-306 278.86,-306 285.08,-310.5 275.08,-306"/>
</g>
<!-- 28&#45;&gt;27 -->
<g id="edge52" class="edge">
<title>28&#45;&gt;27</title>
<path fill="none" stroke="black" d="M316.83,-287.83C316.83,-280.47 316.83,-271.78 316.83,-263.55"/>
<polygon fill="black" stroke="black" points="316.83,-253.63 321.33,-263.63 316.83,-257.41 316.83,-263.63 316.83,-263.63 316.83,-263.63 316.83,-257.41 312.33,-263.63 316.83,-253.63"/>
</g>
<!-- 29 -->
<g id="node29" class="node">
<title>29</title>
<ellipse fill="lightgrey" stroke="black" cx="316.83" cy="-378" rx="28.83" ry="18"/>
<text text-anchor="middle" x="316.83" y="-372.95" font-family="Times,serif" font-size="14.00">(4,5)</text>
</g>
<!-- 29&#45;&gt;11 -->
<g id="edge43" class="edge">
<title>29&#45;&gt;11</title>
<path fill="none" stroke="black" d="M291.95,-387.69C278.28,-392.46 260.88,-397.63 244.83,-399.76 213.11,-403.95 204.56,-403.95 172.83,-399.76 162.03,-398.33 159.61,-396.45 149.16,-393.38 145.3,-392.25 141.28,-391.03 137.27,-389.79"/>
<polygon fill="black" stroke="black" points="128.01,-386.89 138.9,-385.59 131.62,-388.02 137.55,-389.88 137.55,-389.88 137.55,-389.88 131.62,-388.02 136.2,-394.17 128.01,-386.89"/>
</g>
<!-- 29&#45;&gt;23 -->
<g id="edge53" class="edge">
<title>29&#45;&gt;23</title>
<path fill="none" stroke="black" d="M287.55,-378C286.7,-378 285.85,-378 284.99,-378"/>
<polygon fill="black" stroke="black" points="275.08,-378 285.08,-373.5 278.86,-378 285.08,-378 285.08,-378 285.08,-378 278.86,-378 285.08,-382.5 275.08,-378"/>
</g>
<!-- 29&#45;&gt;28 -->
<g id="edge54" class="edge">
<title>29&#45;&gt;28</title>
<path fill="none" stroke="black" d="M316.83,-359.83C316.83,-352.47 316.83,-343.78 316.83,-335.55"/>
<polygon fill="black" stroke="black" points="316.83,-325.63 321.33,-335.63 316.83,-329.41 316.83,-335.63 316.83,-335.63 316.83,-335.63 316.83,-329.41 312.33,-335.63 316.83,-325.63"/>
</g>
</g>
</svg>
