<?xml version="1.0" encoding="UTF-8" standalone="no"?>
<!DOCTYPE svg PUBLIC "-//W3C//DTD SVG 1.1//EN"
 "http://www.w3.org/Graphics/SVG/1.1/DTD/svg11.dtd">
<!-- Generated by graphviz version 11.0.0 (20240428.1522)
 -->
<!-- Title: 3_5 Pages: 1 -->
<svg width="202pt" height="332pt"
 viewBox="0.00 0.00 202.07 332.00" xmlns="http://www.w3.org/2000/svg" xmlns:xlink="http://www.w3.org/1999/xlink">
<g id="graph0" class="graph" transform="scale(1 1) rotate(0) translate(4 328)">
<title>3_5</title>
<polygon fill="white" stroke="none" points="-4,4 -4,-328 198.07,-328 198.07,4 -4,4"/>
<!-- &#10216;3, 5&#10217; -->
<g id="node1" class="node">
<title>&#10216;3, 5&#10217;</title>
<text text-anchor="middle" x="27" y="-300.95" font-family="Times,serif" font-size="14.00">⟨3, 5⟩</text>
</g>
<!-- 1 -->
<g id="node2" class="node">
<title>1</title>
<ellipse fill="lightgrey" stroke="black" cx="111" cy="-306" rx="39.07" ry="18"/>
<text text-anchor="middle" x="111" y="-300.95" font-family="Times,serif" font-size="14.00">{0,1,2}</text>
</g>
<!-- 2 -->
<g id="node3" class="node">
<title>2</title>
<ellipse fill="none" stroke="black" cx="66" cy="-234" rx="31.9" ry="18"/>
<text text-anchor="middle" x="66" y="-228.95" font-family="Times,serif" font-size="14.00">{0,1}</text>
</g>
<!-- 1&#45;&#45;2 -->
<g id="edge1" class="edge">
<title>1&#45;&#45;2</title>
<path fill="none" stroke="black" d="M100.34,-288.41C93.16,-277.25 83.75,-262.6 76.59,-251.47"/>
</g>
<!-- 3 -->
<g id="node4" class="node">
<title>3</title>
<ellipse fill="lightgrey" stroke="black" cx="155" cy="-234" rx="39.07" ry="18"/>
<text text-anchor="middle" x="155" y="-228.95" font-family="Times,serif" font-size="14.00">{0,2,4}</text>
</g>
<!-- 1&#45;&#45;3 -->
<g id="edge2" class="edge">
<title>1&#45;&#45;3</title>
<path fill="none" stroke="black" d="M121.43,-288.41C128.44,-277.25 137.65,-262.6 144.65,-251.47"/>
</g>
<!-- 4 -->
<g id="node5" class="node">
<title>4</title>
<ellipse fill="lightgrey" stroke="black" cx="73" cy="-162" rx="31.9" ry="18"/>
<text text-anchor="middle" x="73" y="-156.95" font-family="Times,serif" font-size="14.00">{0,4}</text>
</g>
<!-- 2&#45;&#45;4 -->
<g id="edge3" class="edge">
<title>2&#45;&#45;4</title>
<path fill="none" stroke="black" d="M67.73,-215.7C68.82,-204.85 70.21,-190.92 71.29,-180.1"/>
</g>
<!-- 3&#45;&#45;4 -->
<g id="edge4" class="edge">
<title>3&#45;&#45;4</title>
<path fill="none" stroke="black" d="M137.21,-217.81C123.26,-205.91 103.98,-189.45 90.2,-177.68"/>
</g>
<!-- 5 -->
<g id="node6" class="node">
<title>5</title>
<ellipse fill="none" stroke="black" cx="155" cy="-162" rx="31.9" ry="18"/>
<text text-anchor="middle" x="155" y="-156.95" font-family="Times,serif" font-size="14.00">{0,2}</text>
</g>
<!-- 3&#45;&#45;5 -->
<g id="edge5" class="edge">
<title>3&#45;&#45;5</title>
<path fill="none" stroke="black" d="M155,-215.7C155,-204.85 155,-190.92 155,-180.1"/>
</g>
<!-- 6 -->
<g id="node7" class="node">
<title>6</title>
<ellipse fill="lightgrey" stroke="black" cx="114" cy="-90" rx="31.9" ry="18"/>
<text text-anchor="middle" x="114" y="-84.95" font-family="Times,serif" font-size="14.00">{0,7}</text>
</g>
<!-- 4&#45;&#45;6 -->
<g id="edge6" class="edge">
<title>4&#45;&#45;6</title>
<path fill="none" stroke="black" d="M82.72,-144.41C89.25,-133.25 97.83,-118.6 104.35,-107.47"/>
</g>
<!-- 5&#45;&#45;6 -->
<g id="edge7" class="edge">
<title>5&#45;&#45;6</title>
<path fill="none" stroke="black" d="M145.28,-144.41C138.75,-133.25 130.17,-118.6 123.65,-107.47"/>
</g>
<!-- 7 -->
<g id="node8" class="node">
<title>7</title>
<ellipse fill="lightgrey" stroke="black" cx="114" cy="-18" rx="27" ry="18"/>
<text text-anchor="middle" x="114" y="-12.95" font-family="Times,serif" font-size="14.00">{0}</text>
</g>
<!-- 6&#45;&#45;7 -->
<g id="edge8" class="edge">
<title>6&#45;&#45;7</title>
<path fill="none" stroke="black" d="M114,-71.7C114,-60.85 114,-46.92 114,-36.1"/>
</g>
</g>
</svg>
