<?xml version="1.0" encoding="UTF-8" standalone="no"?>
<!DOCTYPE svg PUBLIC "-//W3C//DTD SVG 1.1//EN"
 "http://www.w3.org/Graphics/SVG/1.1/DTD/svg11.dtd">
<!-- Generated by graphviz version 11.0.0 (20240428.1522)
 -->
<!-- Title: 3_7 Pages: 1 -->
<svg width="250pt" height="476pt"
 viewBox="0.00 0.00 249.81 476.00" xmlns="http://www.w3.org/2000/svg" xmlns:xlink="http://www.w3.org/1999/xlink">
<g id="graph0" class="graph" transform="scale(1 1) rotate(0) translate(4 472)">
<title>3_7</title>
<polygon fill="white" stroke="none" points="-4,4 -4,-472 245.81,-472 245.81,4 -4,4"/>
<!-- &#10216;3, 7&#10217; -->
<g id="node1" class="node">
<title>&#10216;3, 7&#10217;</title>
<text text-anchor="middle" x="36.9" y="-444.95" font-family="Times,serif" font-size="14.00">⟨3, 7⟩</text>
</g>
<!-- 1 -->
<g id="node2" class="node">
<title>1</title>
<ellipse fill="lightgrey" stroke="black" cx="120.9" cy="-450" rx="39.07" ry="18"/>
<text text-anchor="middle" x="120.9" y="-444.95" font-family="Times,serif" font-size="14.00">{0,1,2}</text>
</g>
<!-- 2 -->
<g id="node3" class="node">
<title>2</title>
<ellipse fill="none" stroke="black" cx="72.9" cy="-378" rx="39.07" ry="18"/>
<text text-anchor="middle" x="72.9" y="-372.95" font-family="Times,serif" font-size="14.00">{0,1,5}</text>
</g>
<!-- 1&#45;&#45;2 -->
<g id="edge1" class="edge">
<title>1&#45;&#45;2</title>
<path fill="none" stroke="black" d="M109.53,-432.41C101.88,-421.25 91.83,-406.6 84.2,-395.47"/>
</g>
<!-- 4 -->
<g id="node5" class="node">
<title>4</title>
<ellipse fill="lightgrey" stroke="black" cx="168.9" cy="-378" rx="39.07" ry="18"/>
<text text-anchor="middle" x="168.9" y="-372.95" font-family="Times,serif" font-size="14.00">{0,2,4}</text>
</g>
<!-- 1&#45;&#45;4 -->
<g id="edge2" class="edge">
<title>1&#45;&#45;4</title>
<path fill="none" stroke="black" d="M132.28,-432.41C139.93,-421.25 149.97,-406.6 157.61,-395.47"/>
</g>
<!-- 3 -->
<g id="node4" class="node">
<title>3</title>
<ellipse fill="none" stroke="black" cx="31.9" cy="-306" rx="31.9" ry="18"/>
<text text-anchor="middle" x="31.9" y="-300.95" font-family="Times,serif" font-size="14.00">{0,1}</text>
</g>
<!-- 2&#45;&#45;3 -->
<g id="edge3" class="edge">
<title>2&#45;&#45;3</title>
<path fill="none" stroke="black" d="M63.19,-360.41C56.65,-349.25 48.07,-334.6 41.55,-323.47"/>
</g>
<!-- 5 -->
<g id="node6" class="node">
<title>5</title>
<ellipse fill="lightgrey" stroke="black" cx="120.9" cy="-306" rx="39.07" ry="18"/>
<text text-anchor="middle" x="120.9" y="-300.95" font-family="Times,serif" font-size="14.00">{0,4,5}</text>
</g>
<!-- 2&#45;&#45;5 -->
<g id="edge4" class="edge">
<title>2&#45;&#45;5</title>
<path fill="none" stroke="black" d="M84.28,-360.41C91.93,-349.25 101.97,-334.6 109.61,-323.47"/>
</g>
<!-- 6 -->
<g id="node7" class="node">
<title>6</title>
<ellipse fill="lightgrey" stroke="black" cx="56.9" cy="-234" rx="39.07" ry="18"/>
<text text-anchor="middle" x="56.9" y="-228.95" font-family="Times,serif" font-size="14.00">{0,4,8}</text>
</g>
<!-- 3&#45;&#45;6 -->
<!-- 10 -->
<g id="node11" class="node">
<title>10</title>
<ellipse fill="lightgrey" stroke="black" cx="138.9" cy="-162" rx="31.9" ry="18"/>
<text text-anchor="middle" x="138.9" y="-156.95" font-family="Times,serif" font-size="14.00">{0,8}</text>
</g>
<!-- 3&#45;&#45;10 -->
<g id="edge8" class="edge">
<title>3&#45;&#45;10</title>
<path fill="none" stroke="black" d="M54.73,-293.13C70.69,-283.83 91.47,-269.53 104.9,-252 121.6,-230.21 130.94,-199.25 135.44,-180.18"/>
</g>
<!-- 4&#45;&#45;5 -->
<g id="edge5" class="edge">
<title>4&#45;&#45;5</title>
<path fill="none" stroke="black" d="M157.53,-360.41C149.88,-349.25 139.83,-334.6 132.2,-323.47"/>
</g>
<!-- 8 -->
<g id="node9" class="node">
<title>8</title>
<ellipse fill="none" stroke="black" cx="209.9" cy="-306" rx="31.9" ry="18"/>
<text text-anchor="middle" x="209.9" y="-300.95" font-family="Times,serif" font-size="14.00">{0,2}</text>
</g>
<!-- 4&#45;&#45;8 -->
<g id="edge6" class="edge">
<title>4&#45;&#45;8</title>
<path fill="none" stroke="black" d="M178.62,-360.41C185.15,-349.25 193.73,-334.6 200.26,-323.47"/>
</g>
<!-- 5&#45;&#45;6 -->
<g id="edge9" class="edge">
<title>5&#45;&#45;6</title>
<path fill="none" stroke="black" d="M106.38,-289.12C95.91,-277.66 81.83,-262.26 71.37,-250.82"/>
</g>
<!-- 9 -->
<g id="node10" class="node">
<title>9</title>
<ellipse fill="lightgrey" stroke="black" cx="183.9" cy="-234" rx="31.9" ry="18"/>
<text text-anchor="middle" x="183.9" y="-228.95" font-family="Times,serif" font-size="14.00">{0,5}</text>
</g>
<!-- 5&#45;&#45;9 -->
<g id="edge10" class="edge">
<title>5&#45;&#45;9</title>
<path fill="none" stroke="black" d="M135.2,-289.12C145.65,-277.5 159.76,-261.83 170.1,-250.34"/>
</g>
<!-- 7 -->
<g id="node8" class="node">
<title>7</title>
<ellipse fill="none" stroke="black" cx="56.9" cy="-162" rx="31.9" ry="18"/>
<text text-anchor="middle" x="56.9" y="-156.95" font-family="Times,serif" font-size="14.00">{0,4}</text>
</g>
<!-- 6&#45;&#45;7 -->
<g id="edge12" class="edge">
<title>6&#45;&#45;7</title>
<path fill="none" stroke="black" d="M56.9,-215.7C56.9,-204.85 56.9,-190.92 56.9,-180.1"/>
</g>
<!-- 6&#45;&#45;10 -->
<g id="edge13" class="edge">
<title>6&#45;&#45;10</title>
<path fill="none" stroke="black" d="M74.7,-217.81C88.64,-205.91 107.92,-189.45 121.71,-177.68"/>
</g>
<!-- 11 -->
<g id="node12" class="node">
<title>11</title>
<ellipse fill="lightgrey" stroke="black" cx="97.9" cy="-90" rx="36.51" ry="18"/>
<text text-anchor="middle" x="97.9" y="-84.95" font-family="Times,serif" font-size="14.00">{0,11}</text>
</g>
<!-- 7&#45;&#45;11 -->
<g id="edge15" class="edge">
<title>7&#45;&#45;11</title>
<path fill="none" stroke="black" d="M66.62,-144.41C73.15,-133.25 81.73,-118.6 88.26,-107.47"/>
</g>
<!-- 8&#45;&#45;9 -->
<g id="edge11" class="edge">
<title>8&#45;&#45;9</title>
<path fill="none" stroke="black" d="M203.61,-288.05C199.52,-277.05 194.21,-262.76 190.14,-251.79"/>
</g>
<!-- 9&#45;&#45;10 -->
<g id="edge14" class="edge">
<title>9&#45;&#45;10</title>
<path fill="none" stroke="black" d="M173.47,-216.76C166.2,-205.46 156.54,-190.44 149.28,-179.15"/>
</g>
<!-- 10&#45;&#45;11 -->
<g id="edge16" class="edge">
<title>10&#45;&#45;11</title>
<path fill="none" stroke="black" d="M129.19,-144.41C122.65,-133.25 114.07,-118.6 107.55,-107.47"/>
</g>
<!-- 12 -->
<g id="node13" class="node">
<title>12</title>
<ellipse fill="lightgrey" stroke="black" cx="97.9" cy="-18" rx="27" ry="18"/>
<text text-anchor="middle" x="97.9" y="-12.95" font-family="Times,serif" font-size="14.00">{0}</text>
</g>
<!-- 11&#45;&#45;12 -->
<g id="edge17" class="edge">
<title>11&#45;&#45;12</title>
<path fill="none" stroke="black" d="M97.9,-71.7C97.9,-60.85 97.9,-46.92 97.9,-36.1"/>
</g>
</g>
</svg>
