<?xml version="1.0" encoding="UTF-8" standalone="no"?>
<!DOCTYPE svg PUBLIC "-//W3C//DTD SVG 1.1//EN"
 "http://www.w3.org/Graphics/SVG/1.1/DTD/svg11.dtd">
<!-- Generated by graphviz version 11.0.0 (20240428.1522)
 -->
<!-- Title: 4_6_9 Pages: 1 -->
<svg width="398pt" height="476pt"
 viewBox="0.00 0.00 397.97 476.00" xmlns="http://www.w3.org/2000/svg" xmlns:xlink="http://www.w3.org/1999/xlink">
<g id="graph0" class="graph" transform="scale(1 1) rotate(0) translate(4 472)">
<title>4_6_9</title>
<polygon fill="white" stroke="none" points="-4,4 -4,-472 393.97,-472 393.97,4 -4,4"/>
<!-- &#10216;4, 6, 9&#10217; -->
<g id="node1" class="node">
<title>&#10216;4, 6, 9&#10217;</title>
<text text-anchor="middle" x="52.07" y="-444.95" font-family="Times,serif" font-size="14.00">⟨4, 6, 9⟩</text>
</g>
<!-- 1 -->
<g id="node2" class="node">
<title>1</title>
<ellipse fill="lightgrey" stroke="black" cx="147.07" cy="-450" rx="46.23" ry="18"/>
<text text-anchor="middle" x="147.07" y="-444.95" font-family="Times,serif" font-size="14.00">{0,1,2,3}</text>
</g>
<!-- 2 -->
<g id="node3" class="node">
<title>2</title>
<ellipse fill="none" stroke="black" cx="51.07" cy="-378" rx="39.07" ry="18"/>
<text text-anchor="middle" x="51.07" y="-372.95" font-family="Times,serif" font-size="14.00">{0,1,2}</text>
</g>
<!-- 1&#45;&#45;2 -->
<g id="edge1" class="edge">
<title>1&#45;&#45;2</title>
<path fill="none" stroke="black" d="M126.24,-433.81C109.91,-421.91 87.34,-405.45 71.2,-393.68"/>
</g>
<!-- 3 -->
<g id="node4" class="node">
<title>3</title>
<ellipse fill="none" stroke="black" cx="147.07" cy="-378" rx="39.07" ry="18"/>
<text text-anchor="middle" x="147.07" y="-372.95" font-family="Times,serif" font-size="14.00">{0,1,3}</text>
</g>
<!-- 1&#45;&#45;3 -->
<g id="edge2" class="edge">
<title>1&#45;&#45;3</title>
<path fill="none" stroke="black" d="M147.07,-431.7C147.07,-420.85 147.07,-406.92 147.07,-396.1"/>
</g>
<!-- 5 -->
<g id="node6" class="node">
<title>5</title>
<ellipse fill="lightgrey" stroke="black" cx="250.07" cy="-378" rx="46.23" ry="18"/>
<text text-anchor="middle" x="250.07" y="-372.95" font-family="Times,serif" font-size="14.00">{0,2,3,5}</text>
</g>
<!-- 1&#45;&#45;5 -->
<g id="edge3" class="edge">
<title>1&#45;&#45;5</title>
<path fill="none" stroke="black" d="M169.42,-433.81C186.69,-422.07 210.5,-405.89 227.76,-394.16"/>
</g>
<!-- 4 -->
<g id="node5" class="node">
<title>4</title>
<ellipse fill="none" stroke="black" cx="51.07" cy="-306" rx="31.9" ry="18"/>
<text text-anchor="middle" x="51.07" y="-300.95" font-family="Times,serif" font-size="14.00">{0,1}</text>
</g>
<!-- 2&#45;&#45;4 -->
<g id="edge4" class="edge">
<title>2&#45;&#45;4</title>
<path fill="none" stroke="black" d="M51.07,-359.7C51.07,-348.85 51.07,-334.92 51.07,-324.1"/>
</g>
<!-- 6 -->
<g id="node7" class="node">
<title>6</title>
<ellipse fill="lightgrey" stroke="black" cx="147.07" cy="-306" rx="46.23" ry="18"/>
<text text-anchor="middle" x="147.07" y="-300.95" font-family="Times,serif" font-size="14.00">{0,2,5,7}</text>
</g>
<!-- 2&#45;&#45;6 -->
<!-- 3&#45;&#45;4 -->
<g id="edge6" class="edge">
<title>3&#45;&#45;4</title>
<path fill="none" stroke="black" d="M126.71,-362.15C109.98,-349.95 86.45,-332.8 70.09,-320.87"/>
</g>
<!-- 8 -->
<g id="node9" class="node">
<title>8</title>
<ellipse fill="lightgrey" stroke="black" cx="250.07" cy="-306" rx="39.07" ry="18"/>
<text text-anchor="middle" x="250.07" y="-300.95" font-family="Times,serif" font-size="14.00">{0,3,5}</text>
</g>
<!-- 3&#45;&#45;8 -->
<g id="edge7" class="edge">
<title>3&#45;&#45;8</title>
<path fill="none" stroke="black" d="M168.41,-362.5C186.09,-350.48 211.08,-333.49 228.75,-321.49"/>
</g>
<!-- 9 -->
<g id="node10" class="node">
<title>9</title>
<ellipse fill="lightgrey" stroke="black" cx="135.07" cy="-234" rx="39.07" ry="18"/>
<text text-anchor="middle" x="135.07" y="-228.95" font-family="Times,serif" font-size="14.00">{0,5,7}</text>
</g>
<!-- 4&#45;&#45;9 -->
<g id="edge11" class="edge">
<title>4&#45;&#45;9</title>
<path fill="none" stroke="black" d="M68.47,-290.5C82.6,-278.72 102.46,-262.17 116.81,-250.21"/>
</g>
<!-- 5&#45;&#45;6 -->
<g id="edge8" class="edge">
<title>5&#45;&#45;6</title>
<path fill="none" stroke="black" d="M227.72,-361.81C210.44,-350.07 186.64,-333.89 169.37,-322.16"/>
</g>
<!-- 5&#45;&#45;8 -->
<g id="edge9" class="edge">
<title>5&#45;&#45;8</title>
<path fill="none" stroke="black" d="M250.07,-359.7C250.07,-348.85 250.07,-334.92 250.07,-324.1"/>
</g>
<!-- 11 -->
<g id="node12" class="node">
<title>11</title>
<ellipse fill="none" stroke="black" cx="346.07" cy="-306" rx="39.07" ry="18"/>
<text text-anchor="middle" x="346.07" y="-300.95" font-family="Times,serif" font-size="14.00">{0,2,3}</text>
</g>
<!-- 5&#45;&#45;11 -->
<g id="edge10" class="edge">
<title>5&#45;&#45;11</title>
<path fill="none" stroke="black" d="M270.9,-361.81C287.22,-349.91 309.79,-333.45 325.94,-321.68"/>
</g>
<!-- 7 -->
<g id="node8" class="node">
<title>7</title>
<ellipse fill="none" stroke="black" cx="39.07" cy="-234" rx="39.07" ry="18"/>
<text text-anchor="middle" x="39.07" y="-228.95" font-family="Times,serif" font-size="14.00">{0,2,5}</text>
</g>
<!-- 6&#45;&#45;7 -->
<g id="edge12" class="edge">
<title>6&#45;&#45;7</title>
<path fill="none" stroke="black" d="M123.9,-289.98C105.31,-277.93 79.38,-261.13 61.09,-249.27"/>
</g>
<!-- 6&#45;&#45;9 -->
<g id="edge13" class="edge">
<title>6&#45;&#45;9</title>
<path fill="none" stroke="black" d="M144.1,-287.7C142.24,-276.85 139.85,-262.92 138,-252.1"/>
</g>
<!-- 12 -->
<g id="node13" class="node">
<title>12</title>
<ellipse fill="lightgrey" stroke="black" cx="231.07" cy="-234" rx="39.07" ry="18"/>
<text text-anchor="middle" x="231.07" y="-228.95" font-family="Times,serif" font-size="14.00">{0,2,7}</text>
</g>
<!-- 6&#45;&#45;12 -->
<g id="edge14" class="edge">
<title>6&#45;&#45;12</title>
<path fill="none" stroke="black" d="M166.13,-289.12C180.07,-277.5 198.87,-261.83 212.66,-250.34"/>
</g>
<!-- 10 -->
<g id="node11" class="node">
<title>10</title>
<ellipse fill="lightgrey" stroke="black" cx="67.07" cy="-162" rx="31.9" ry="18"/>
<text text-anchor="middle" x="67.07" y="-156.95" font-family="Times,serif" font-size="14.00">{0,5}</text>
</g>
<!-- 7&#45;&#45;10 -->
<!-- 13 -->
<g id="node14" class="node">
<title>13</title>
<ellipse fill="lightgrey" stroke="black" cx="149.07" cy="-162" rx="31.9" ry="18"/>
<text text-anchor="middle" x="149.07" y="-156.95" font-family="Times,serif" font-size="14.00">{0,2}</text>
</g>
<!-- 7&#45;&#45;13 -->
<!-- 16 -->
<g id="node17" class="node">
<title>16</title>
<ellipse fill="lightgrey" stroke="black" cx="149.07" cy="-90" rx="36.51" ry="18"/>
<text text-anchor="middle" x="149.07" y="-84.95" font-family="Times,serif" font-size="14.00">{0,11}</text>
</g>
<!-- 7&#45;&#45;16 -->
<g id="edge21" class="edge">
<title>7&#45;&#45;16</title>
<path fill="none" stroke="black" d="M30.25,-216.11C21.63,-197.02 11.73,-165.78 26.07,-144 45.43,-114.57 84.95,-101.41 113.99,-95.57"/>
</g>
<!-- 8&#45;&#45;9 -->
<g id="edge15" class="edge">
<title>8&#45;&#45;9</title>
<path fill="none" stroke="black" d="M227.07,-291C207.02,-278.79 178.07,-261.17 158.02,-248.97"/>
</g>
<!-- 14 -->
<g id="node15" class="node">
<title>14</title>
<ellipse fill="lightgrey" stroke="black" cx="358.07" cy="-234" rx="31.9" ry="18"/>
<text text-anchor="middle" x="358.07" y="-228.95" font-family="Times,serif" font-size="14.00">{0,3}</text>
</g>
<!-- 8&#45;&#45;14 -->
<g id="edge16" class="edge">
<title>8&#45;&#45;14</title>
<path fill="none" stroke="black" d="M272.18,-290.67C291.44,-278.19 319.12,-260.25 337.81,-248.13"/>
</g>
<!-- 9&#45;&#45;10 -->
<g id="edge23" class="edge">
<title>9&#45;&#45;10</title>
<path fill="none" stroke="black" d="M119.64,-217.12C108.35,-205.5 93.13,-189.83 81.97,-178.34"/>
</g>
<!-- 15 -->
<g id="node16" class="node">
<title>15</title>
<ellipse fill="lightgrey" stroke="black" cx="231.07" cy="-162" rx="31.9" ry="18"/>
<text text-anchor="middle" x="231.07" y="-156.95" font-family="Times,serif" font-size="14.00">{0,7}</text>
</g>
<!-- 9&#45;&#45;15 -->
<g id="edge24" class="edge">
<title>9&#45;&#45;15</title>
<path fill="none" stroke="black" d="M155.43,-218.15C172.16,-205.95 195.69,-188.8 212.04,-176.87"/>
</g>
<!-- 10&#45;&#45;16 -->
<g id="edge28" class="edge">
<title>10&#45;&#45;16</title>
<path fill="none" stroke="black" d="M84.06,-146.5C97.85,-134.72 117.24,-118.17 131.25,-106.21"/>
</g>
<!-- 11&#45;&#45;12 -->
<!-- 11&#45;&#45;14 -->
<!-- 11&#45;&#45;15 -->
<g id="edge18" class="edge">
<title>11&#45;&#45;15</title>
<path fill="none" stroke="black" d="M334.39,-288.58C321.35,-270.46 299.4,-240.6 279.07,-216 268.31,-202.99 255.44,-188.84 245.73,-178.44"/>
</g>
<!-- 12&#45;&#45;13 -->
<g id="edge25" class="edge">
<title>12&#45;&#45;13</title>
<path fill="none" stroke="black" d="M213.28,-217.81C199.33,-205.91 180.05,-189.45 166.26,-177.68"/>
</g>
<!-- 12&#45;&#45;15 -->
<g id="edge26" class="edge">
<title>12&#45;&#45;15</title>
<path fill="none" stroke="black" d="M231.07,-215.7C231.07,-204.85 231.07,-190.92 231.07,-180.1"/>
</g>
<!-- 13&#45;&#45;16 -->
<g id="edge29" class="edge">
<title>13&#45;&#45;16</title>
<path fill="none" stroke="black" d="M149.07,-143.7C149.07,-132.85 149.07,-118.92 149.07,-108.1"/>
</g>
<!-- 14&#45;&#45;15 -->
<g id="edge27" class="edge">
<title>14&#45;&#45;15</title>
<path fill="none" stroke="black" d="M335.66,-220.65C312.44,-207.85 276.39,-187.98 253.26,-175.23"/>
</g>
<!-- 15&#45;&#45;16 -->
<g id="edge30" class="edge">
<title>15&#45;&#45;16</title>
<path fill="none" stroke="black" d="M214.08,-146.5C200.29,-134.72 180.9,-118.17 166.89,-106.21"/>
</g>
<!-- 17 -->
<g id="node18" class="node">
<title>17</title>
<ellipse fill="lightgrey" stroke="black" cx="149.07" cy="-18" rx="27" ry="18"/>
<text text-anchor="middle" x="149.07" y="-12.95" font-family="Times,serif" font-size="14.00">{0}</text>
</g>
<!-- 16&#45;&#45;17 -->
<g id="edge31" class="edge">
<title>16&#45;&#45;17</title>
<path fill="none" stroke="black" d="M149.07,-71.7C149.07,-60.85 149.07,-46.92 149.07,-36.1"/>
</g>
</g>
</svg>
