<?xml version="1.0" encoding="UTF-8" standalone="no"?>
<!DOCTYPE svg PUBLIC "-//W3C//DTD SVG 1.1//EN"
 "http://www.w3.org/Graphics/SVG/1.1/DTD/svg11.dtd">
<!-- Generated by graphviz version 11.0.0 (20240428.1522)
 -->
<!-- Title: NSGraph Pages: 1 -->
<svg width="278pt" height="476pt"
 viewBox="0.00 0.00 278.00 476.00" xmlns="http://www.w3.org/2000/svg" xmlns:xlink="http://www.w3.org/1999/xlink">
<g id="graph0" class="graph" transform="scale(1 1) rotate(0) translate(4 472)">
<title>NSGraph</title>
<polygon fill="white" stroke="none" points="-4,4 -4,-472 274,-472 274,4 -4,4"/>
<!-- 1 -->
<g id="node1" class="node">
<title>1</title>
<ellipse fill="none" stroke="black" cx="99" cy="-450" rx="27" ry="18"/>
</g>
<!-- 2 -->
<g id="node2" class="node">
<title>2</title>
<ellipse fill="none" stroke="black" cx="27" cy="-378" rx="27" ry="18"/>
</g>
<!-- 1&#45;&gt;2 -->
<g id="edge1" class="edge">
<title>1&#45;&gt;2</title>
<path fill="none" stroke="black" d="M76,-426.64C64.84,-415.79 51.74,-403.05 41.9,-393.49"/>
<polygon fill="black" stroke="black" points="73.39,-428.98 83,-433.44 78.27,-423.96 73.39,-428.98"/>
</g>
<!-- 3 -->
<g id="node3" class="node">
<title>3</title>
<ellipse fill="none" stroke="black" cx="99" cy="-378" rx="27" ry="18"/>
</g>
<!-- 1&#45;&gt;3 -->
<g id="edge2" class="edge">
<title>1&#45;&gt;3</title>
<path fill="none" stroke="black" d="M99,-420.24C99,-412.04 99,-403.37 99,-396.1"/>
<polygon fill="black" stroke="black" points="95.5,-420.18 99,-430.18 102.5,-420.18 95.5,-420.18"/>
</g>
<!-- 5 -->
<g id="node5" class="node">
<title>5</title>
<ellipse fill="none" stroke="black" cx="171" cy="-378" rx="27" ry="18"/>
</g>
<!-- 1&#45;&gt;5 -->
<g id="edge5" class="edge">
<title>1&#45;&gt;5</title>
<path fill="none" stroke="black" d="M122,-426.64C133.16,-415.79 146.26,-403.05 156.1,-393.49"/>
<polygon fill="black" stroke="black" points="119.73,-423.96 115,-433.44 124.61,-428.98 119.73,-423.96"/>
</g>
<!-- 4 -->
<g id="node4" class="node">
<title>4</title>
<ellipse fill="lightgrey" stroke="black" cx="27" cy="-306" rx="27" ry="18"/>
</g>
<!-- 2&#45;&gt;4 -->
<g id="edge3" class="edge">
<title>2&#45;&gt;4</title>
<path fill="none" stroke="black" d="M27,-348.24C27,-340.04 27,-331.37 27,-324.1"/>
<polygon fill="black" stroke="black" points="23.5,-348.18 27,-358.18 30.5,-348.18 23.5,-348.18"/>
</g>
<!-- 6 -->
<g id="node6" class="node">
<title>6</title>
<ellipse fill="none" stroke="black" cx="99" cy="-306" rx="27" ry="18"/>
</g>
<!-- 2&#45;&gt;6 -->
<g id="edge6" class="edge">
<title>2&#45;&gt;6</title>
<path fill="none" stroke="black" d="M50,-354.64C61.16,-343.79 74.26,-331.05 84.1,-321.49"/>
<polygon fill="black" stroke="black" points="47.73,-351.96 43,-361.44 52.61,-356.98 47.73,-351.96"/>
</g>
<!-- 3&#45;&gt;4 -->
<g id="edge4" class="edge">
<title>3&#45;&gt;4</title>
<path fill="none" stroke="black" d="M76,-354.64C64.84,-343.79 51.74,-331.05 41.9,-321.49"/>
<polygon fill="black" stroke="black" points="73.39,-356.98 83,-361.44 78.27,-351.96 73.39,-356.98"/>
</g>
<!-- 8 -->
<g id="node8" class="node">
<title>8</title>
<ellipse fill="none" stroke="black" cx="171" cy="-306" rx="27" ry="18"/>
</g>
<!-- 3&#45;&gt;8 -->
<g id="edge9" class="edge">
<title>3&#45;&gt;8</title>
<path fill="none" stroke="black" d="M122,-354.64C133.16,-343.79 146.26,-331.05 156.1,-321.49"/>
<polygon fill="black" stroke="black" points="119.73,-351.96 115,-361.44 124.61,-356.98 119.73,-351.96"/>
</g>
<!-- 9 -->
<g id="node9" class="node">
<title>9</title>
<ellipse fill="none" stroke="black" cx="99" cy="-234" rx="27" ry="18"/>
</g>
<!-- 4&#45;&gt;9 -->
<g id="edge11" class="edge">
<title>4&#45;&gt;9</title>
<path fill="none" stroke="black" d="M50,-282.64C61.16,-271.79 74.26,-259.05 84.1,-249.49"/>
<polygon fill="black" stroke="black" points="47.73,-279.96 43,-289.44 52.61,-284.98 47.73,-279.96"/>
</g>
<!-- 5&#45;&gt;6 -->
<g id="edge7" class="edge">
<title>5&#45;&gt;6</title>
<path fill="none" stroke="black" d="M148,-354.64C136.84,-343.79 123.74,-331.05 113.9,-321.49"/>
<polygon fill="black" stroke="black" points="145.39,-356.98 155,-361.44 150.27,-351.96 145.39,-356.98"/>
</g>
<!-- 5&#45;&gt;8 -->
<g id="edge10" class="edge">
<title>5&#45;&gt;8</title>
<path fill="none" stroke="black" d="M171,-348.24C171,-340.04 171,-331.37 171,-324.1"/>
<polygon fill="black" stroke="black" points="167.5,-348.18 171,-358.18 174.5,-348.18 167.5,-348.18"/>
</g>
<!-- 11 -->
<g id="node11" class="node">
<title>11</title>
<ellipse fill="none" stroke="black" cx="243" cy="-306" rx="27" ry="18"/>
</g>
<!-- 5&#45;&gt;11 -->
<g id="edge16" class="edge">
<title>5&#45;&gt;11</title>
<path fill="none" stroke="black" d="M194,-354.64C205.16,-343.79 218.26,-331.05 228.1,-321.49"/>
<polygon fill="black" stroke="black" points="191.73,-351.96 187,-361.44 196.61,-356.98 191.73,-351.96"/>
</g>
<!-- 7 -->
<g id="node7" class="node">
<title>7</title>
<ellipse fill="none" stroke="black" cx="27" cy="-234" rx="27" ry="18"/>
</g>
<!-- 6&#45;&gt;7 -->
<g id="edge8" class="edge">
<title>6&#45;&gt;7</title>
<path fill="none" stroke="black" d="M76,-282.64C64.84,-271.79 51.74,-259.05 41.9,-249.49"/>
<polygon fill="black" stroke="black" points="73.39,-284.98 83,-289.44 78.27,-279.96 73.39,-284.98"/>
</g>
<!-- 6&#45;&gt;9 -->
<g id="edge12" class="edge">
<title>6&#45;&gt;9</title>
<path fill="none" stroke="black" d="M99,-276.24C99,-268.04 99,-259.37 99,-252.1"/>
<polygon fill="black" stroke="black" points="95.5,-276.18 99,-286.18 102.5,-276.18 95.5,-276.18"/>
</g>
<!-- 12 -->
<g id="node12" class="node">
<title>12</title>
<ellipse fill="none" stroke="black" cx="171" cy="-234" rx="27" ry="18"/>
</g>
<!-- 6&#45;&gt;12 -->
<g id="edge18" class="edge">
<title>6&#45;&gt;12</title>
<path fill="none" stroke="black" d="M122,-282.64C133.16,-271.79 146.26,-259.05 156.1,-249.49"/>
<polygon fill="black" stroke="black" points="119.73,-279.96 115,-289.44 124.61,-284.98 119.73,-279.96"/>
</g>
<!-- 10 -->
<g id="node10" class="node">
<title>10</title>
<ellipse fill="lightgrey" stroke="black" cx="27" cy="-162" rx="27" ry="18"/>
</g>
<!-- 7&#45;&gt;10 -->
<g id="edge14" class="edge">
<title>7&#45;&gt;10</title>
<path fill="none" stroke="black" d="M27,-204.24C27,-196.04 27,-187.37 27,-180.1"/>
<polygon fill="black" stroke="black" points="23.5,-204.18 27,-214.18 30.5,-204.18 23.5,-204.18"/>
</g>
<!-- 13 -->
<g id="node13" class="node">
<title>13</title>
<ellipse fill="lightgrey" stroke="black" cx="99" cy="-162" rx="27" ry="18"/>
</g>
<!-- 7&#45;&gt;13 -->
<g id="edge19" class="edge">
<title>7&#45;&gt;13</title>
<path fill="none" stroke="black" d="M50,-210.64C61.16,-199.79 74.26,-187.05 84.1,-177.49"/>
<polygon fill="black" stroke="black" points="47.73,-207.96 43,-217.44 52.61,-212.98 47.73,-207.96"/>
</g>
<!-- 8&#45;&gt;9 -->
<g id="edge13" class="edge">
<title>8&#45;&gt;9</title>
<path fill="none" stroke="black" d="M148,-282.64C136.84,-271.79 123.74,-259.05 113.9,-249.49"/>
<polygon fill="black" stroke="black" points="145.39,-284.98 155,-289.44 150.27,-279.96 145.39,-284.98"/>
</g>
<!-- 14 -->
<g id="node14" class="node">
<title>14</title>
<ellipse fill="lightgrey" stroke="black" cx="243" cy="-234" rx="27" ry="18"/>
</g>
<!-- 8&#45;&gt;14 -->
<g id="edge22" class="edge">
<title>8&#45;&gt;14</title>
<path fill="none" stroke="black" d="M194,-282.64C205.16,-271.79 218.26,-259.05 228.1,-249.49"/>
<polygon fill="black" stroke="black" points="191.73,-279.96 187,-289.44 196.61,-284.98 191.73,-279.96"/>
</g>
<!-- 9&#45;&gt;10 -->
<g id="edge15" class="edge">
<title>9&#45;&gt;10</title>
<path fill="none" stroke="black" d="M76,-210.64C64.84,-199.79 51.74,-187.05 41.9,-177.49"/>
<polygon fill="black" stroke="black" points="73.39,-212.98 83,-217.44 78.27,-207.96 73.39,-212.98"/>
</g>
<!-- 15 -->
<g id="node15" class="node">
<title>15</title>
<ellipse fill="lightgrey" stroke="black" cx="171" cy="-162" rx="27" ry="18"/>
</g>
<!-- 9&#45;&gt;15 -->
<g id="edge25" class="edge">
<title>9&#45;&gt;15</title>
<path fill="none" stroke="black" d="M122,-210.64C133.16,-199.79 146.26,-187.05 156.1,-177.49"/>
<polygon fill="black" stroke="black" points="119.73,-207.96 115,-217.44 124.61,-212.98 119.73,-207.96"/>
</g>
<!-- 16 -->
<g id="node16" class="node">
<title>16</title>
<ellipse fill="lightgrey" stroke="black" cx="99" cy="-90" rx="27" ry="18"/>
</g>
<!-- 10&#45;&gt;16 -->
<g id="edge27" class="edge">
<title>10&#45;&gt;16</title>
<path fill="none" stroke="black" d="M50,-138.64C61.16,-127.79 74.26,-115.05 84.1,-105.49"/>
<polygon fill="black" stroke="black" points="47.73,-135.96 43,-145.44 52.61,-140.98 47.73,-135.96"/>
</g>
<!-- 11&#45;&gt;12 -->
<g id="edge17" class="edge">
<title>11&#45;&gt;12</title>
<path fill="none" stroke="black" d="M220,-282.64C208.84,-271.79 195.74,-259.05 185.9,-249.49"/>
<polygon fill="black" stroke="black" points="217.39,-284.98 227,-289.44 222.27,-279.96 217.39,-284.98"/>
</g>
<!-- 11&#45;&gt;14 -->
<g id="edge21" class="edge">
<title>11&#45;&gt;14</title>
<path fill="none" stroke="black" d="M243,-276.24C243,-268.04 243,-259.37 243,-252.1"/>
<polygon fill="black" stroke="black" points="239.5,-276.18 243,-286.18 246.5,-276.18 239.5,-276.18"/>
</g>
<!-- 12&#45;&gt;13 -->
<g id="edge20" class="edge">
<title>12&#45;&gt;13</title>
<path fill="none" stroke="black" d="M148,-210.64C136.84,-199.79 123.74,-187.05 113.9,-177.49"/>
<polygon fill="black" stroke="black" points="145.39,-212.98 155,-217.44 150.27,-207.96 145.39,-212.98"/>
</g>
<!-- 12&#45;&gt;15 -->
<g id="edge23" class="edge">
<title>12&#45;&gt;15</title>
<path fill="none" stroke="black" d="M171,-204.24C171,-196.04 171,-187.37 171,-180.1"/>
<polygon fill="black" stroke="black" points="167.5,-204.18 171,-214.18 174.5,-204.18 167.5,-204.18"/>
</g>
<!-- 13&#45;&gt;16 -->
<g id="edge26" class="edge">
<title>13&#45;&gt;16</title>
<path fill="none" stroke="black" d="M99,-132.24C99,-124.04 99,-115.37 99,-108.1"/>
<polygon fill="black" stroke="black" points="95.5,-132.18 99,-142.18 102.5,-132.18 95.5,-132.18"/>
</g>
<!-- 14&#45;&gt;15 -->
<g id="edge24" class="edge">
<title>14&#45;&gt;15</title>
<path fill="none" stroke="black" d="M220,-210.64C208.84,-199.79 195.74,-187.05 185.9,-177.49"/>
<polygon fill="black" stroke="black" points="217.39,-212.98 227,-217.44 222.27,-207.96 217.39,-212.98"/>
</g>
<!-- 15&#45;&gt;16 -->
<g id="edge28" class="edge">
<title>15&#45;&gt;16</title>
<path fill="none" stroke="black" d="M148,-138.64C136.84,-127.79 123.74,-115.05 113.9,-105.49"/>
<polygon fill="black" stroke="black" points="145.39,-140.98 155,-145.44 150.27,-135.96 145.39,-140.98"/>
</g>
<!-- 17 -->
<g id="node17" class="node">
<title>17</title>
<ellipse fill="none" stroke="black" cx="99" cy="-18" rx="27" ry="18"/>
</g>
<!-- 16&#45;&gt;17 -->
<g id="edge29" class="edge">
<title>16&#45;&gt;17</title>
<path fill="none" stroke="black" d="M99,-60.24C99,-52.04 99,-43.37 99,-36.1"/>
<polygon fill="black" stroke="black" points="95.5,-60.18 99,-70.18 102.5,-60.18 95.5,-60.18"/>
</g>
</g>
</svg>
