<?xml version="1.0" encoding="UTF-8" standalone="no"?>
<!DOCTYPE svg PUBLIC "-//W3C//DTD SVG 1.1//EN"
 "http://www.w3.org/Graphics/SVG/1.1/DTD/svg11.dtd">
<!-- Generated by graphviz version 11.0.0 (20240428.1522)
 -->
<!-- Title: NSGraph Pages: 1 -->
<svg width="206pt" height="188pt"
 viewBox="0.00 0.00 206.00 188.00" xmlns="http://www.w3.org/2000/svg" xmlns:xlink="http://www.w3.org/1999/xlink">
<g id="graph0" class="graph" transform="scale(1 1) rotate(0) translate(4 184)">
<title>NSGraph</title>
<polygon fill="white" stroke="none" points="-4,4 -4,-184 202,-184 202,4 -4,4"/>
<!-- 1 -->
<g id="node1" class="node">
<title>1</title>
<ellipse fill="none" stroke="black" cx="99" cy="-18" rx="27" ry="18"/>
</g>
<!-- 2 -->
<g id="node2" class="node">
<title>2</title>
<ellipse fill="none" stroke="black" cx="27" cy="-90" rx="27" ry="18"/>
</g>
<!-- 3 -->
<g id="node3" class="node">
<title>3</title>
<ellipse fill="none" stroke="black" cx="171" cy="-18" rx="27" ry="18"/>
</g>
<!-- 4 -->
<g id="node4" class="node">
<title>4</title>
<ellipse fill="none" stroke="black" cx="99" cy="-90" rx="27" ry="18"/>
</g>
<!-- 4&#45;&gt;1 -->
<g id="edge1" class="edge">
<title>4&#45;&gt;1</title>
<path fill="none" stroke="black" d="M99,-60.24C99,-52.04 99,-43.37 99,-36.1"/>
<polygon fill="black" stroke="black" points="95.5,-60.18 99,-70.18 102.5,-60.18 95.5,-60.18"/>
</g>
<!-- 5 -->
<g id="node5" class="node">
<title>5</title>
<ellipse fill="none" stroke="black" cx="171" cy="-90" rx="27" ry="18"/>
</g>
<!-- 5&#45;&gt;1 -->
<g id="edge2" class="edge">
<title>5&#45;&gt;1</title>
<path fill="none" stroke="black" d="M148,-66.64C136.84,-55.79 123.74,-43.05 113.9,-33.49"/>
<polygon fill="black" stroke="black" points="145.39,-68.98 155,-73.44 150.27,-63.96 145.39,-68.98"/>
</g>
<!-- 5&#45;&gt;3 -->
<g id="edge4" class="edge">
<title>5&#45;&gt;3</title>
<path fill="none" stroke="black" d="M171,-60.24C171,-52.04 171,-43.37 171,-36.1"/>
<polygon fill="black" stroke="black" points="167.5,-60.18 171,-70.18 174.5,-60.18 167.5,-60.18"/>
</g>
<!-- 6 -->
<g id="node6" class="node">
<title>6</title>
<ellipse fill="none" stroke="black" cx="99" cy="-162" rx="27" ry="18"/>
</g>
<!-- 6&#45;&gt;2 -->
<g id="edge3" class="edge">
<title>6&#45;&gt;2</title>
<path fill="none" stroke="black" d="M76,-138.64C64.84,-127.79 51.74,-115.05 41.9,-105.49"/>
<polygon fill="black" stroke="black" points="73.39,-140.98 83,-145.44 78.27,-135.96 73.39,-140.98"/>
</g>
<!-- 6&#45;&gt;4 -->
<g id="edge5" class="edge">
<title>6&#45;&gt;4</title>
<path fill="none" stroke="black" d="M99,-132.24C99,-124.04 99,-115.37 99,-108.1"/>
<polygon fill="black" stroke="black" points="95.5,-132.18 99,-142.18 102.5,-132.18 95.5,-132.18"/>
</g>
<!-- 6&#45;&gt;5 -->
<g id="edge6" class="edge">
<title>6&#45;&gt;5</title>
<path fill="none" stroke="black" d="M122,-138.64C133.16,-127.79 146.26,-115.05 156.1,-105.49"/>
<polygon fill="black" stroke="black" points="119.73,-135.96 115,-145.44 124.61,-140.98 119.73,-135.96"/>
</g>
</g>
</svg>
