<?xml version="1.0" encoding="UTF-8" standalone="no"?>
<!DOCTYPE svg PUBLIC "-//W3C//DTD SVG 1.1//EN"
 "http://www.w3.org/Graphics/SVG/1.1/DTD/svg11.dtd">
<!-- Generated by graphviz version 11.0.0 (20240428.1522)
 -->
<!-- Title: NSGraph4 Pages: 1 -->
<svg width="467pt" height="476pt"
 viewBox="0.00 0.00 466.61 476.00" xmlns="http://www.w3.org/2000/svg" xmlns:xlink="http://www.w3.org/1999/xlink">
<g id="graph0" class="graph" transform="scale(1 1) rotate(0) translate(4 472)">
<title>NSGraph4</title>
<polygon fill="white" stroke="none" points="-4,4 -4,-472 462.61,-472 462.61,4 -4,4"/>
<!-- 1 -->
<g id="node1" class="node">
<title>1</title>
<ellipse fill="none" stroke="black" cx="166.3" cy="-450" rx="59.03" ry="18"/>
<text text-anchor="middle" x="166.3" y="-444.95" font-family="Times,serif" font-size="14.00">{ 0, 1, 2, 3 }</text>
</g>
<!-- 2 -->
<g id="node2" class="node">
<title>2</title>
<ellipse fill="none" stroke="black" cx="49.3" cy="-378" rx="49.3" ry="18"/>
<text text-anchor="middle" x="49.3" y="-372.95" font-family="Times,serif" font-size="14.00">{ 0, 1, 2 }</text>
</g>
<!-- 1&#45;&gt;2 -->
<g id="edge1" class="edge">
<title>1&#45;&gt;2</title>
<path fill="none" stroke="black" d="M130.58,-427.63C112.27,-416.67 90.42,-403.6 74,-393.77"/>
<polygon fill="black" stroke="black" points="128.66,-430.56 139.04,-432.69 132.25,-424.55 128.66,-430.56"/>
</g>
<!-- 3 -->
<g id="node3" class="node">
<title>3</title>
<ellipse fill="none" stroke="black" cx="166.3" cy="-378" rx="49.3" ry="18"/>
<text text-anchor="middle" x="166.3" y="-372.95" font-family="Times,serif" font-size="14.00">{ 0, 1, 3 }</text>
</g>
<!-- 1&#45;&gt;3 -->
<g id="edge2" class="edge">
<title>1&#45;&gt;3</title>
<path fill="none" stroke="black" d="M166.3,-420.24C166.3,-412.04 166.3,-403.37 166.3,-396.1"/>
<polygon fill="black" stroke="black" points="162.8,-420.18 166.3,-430.18 169.8,-420.18 162.8,-420.18"/>
</g>
<!-- 5 -->
<g id="node5" class="node">
<title>5</title>
<ellipse fill="none" stroke="black" cx="292.3" cy="-378" rx="59.03" ry="18"/>
<text text-anchor="middle" x="292.3" y="-372.95" font-family="Times,serif" font-size="14.00">{ 0, 2, 3, 5 }</text>
</g>
<!-- 1&#45;&gt;5 -->
<g id="edge5" class="edge">
<title>1&#45;&gt;5</title>
<path fill="none" stroke="black" d="M203.77,-428.18C223.33,-417.32 246.84,-404.26 264.72,-394.33"/>
<polygon fill="black" stroke="black" points="202.32,-424.99 195.28,-432.9 205.72,-431.11 202.32,-424.99"/>
</g>
<!-- 4 -->
<g id="node4" class="node">
<title>4</title>
<ellipse fill="none" stroke="black" cx="49.3" cy="-306" rx="39.58" ry="18"/>
<text text-anchor="middle" x="49.3" y="-300.95" font-family="Times,serif" font-size="14.00">{ 0, 1 }</text>
</g>
<!-- 2&#45;&gt;4 -->
<g id="edge3" class="edge">
<title>2&#45;&gt;4</title>
<path fill="none" stroke="black" d="M49.3,-348.24C49.3,-340.04 49.3,-331.37 49.3,-324.1"/>
<polygon fill="black" stroke="black" points="45.8,-348.18 49.3,-358.18 52.8,-348.18 45.8,-348.18"/>
</g>
<!-- 6 -->
<g id="node6" class="node">
<title>6</title>
<ellipse fill="none" stroke="black" cx="166.3" cy="-306" rx="59.03" ry="18"/>
<text text-anchor="middle" x="166.3" y="-300.95" font-family="Times,serif" font-size="14.00">{ 0, 2, 5, 7 }</text>
</g>
<!-- 2&#45;&gt;6 -->
<g id="edge6" class="edge">
<title>2&#45;&gt;6</title>
<path fill="none" stroke="black" d="M83.98,-356.25C102.03,-345.45 123.72,-332.48 140.31,-322.55"/>
<polygon fill="black" stroke="black" points="82.2,-353.24 75.42,-361.38 85.79,-359.25 82.2,-353.24"/>
</g>
<!-- 3&#45;&gt;4 -->
<g id="edge4" class="edge">
<title>3&#45;&gt;4</title>
<path fill="none" stroke="black" d="M131.66,-356.27C112.57,-344.85 89.39,-330.98 72.49,-320.87"/>
<polygon fill="black" stroke="black" points="129.81,-359.25 140.19,-361.38 133.41,-353.24 129.81,-359.25"/>
</g>
<!-- 8 -->
<g id="node8" class="node">
<title>8</title>
<ellipse fill="none" stroke="black" cx="292.3" cy="-306" rx="49.3" ry="18"/>
<text text-anchor="middle" x="292.3" y="-300.95" font-family="Times,serif" font-size="14.00">{ 0, 3, 5 }</text>
</g>
<!-- 3&#45;&gt;8 -->
<g id="edge9" class="edge">
<title>3&#45;&gt;8</title>
<path fill="none" stroke="black" d="M202.53,-356.87C222.77,-345.63 247.54,-331.87 265.93,-321.65"/>
<polygon fill="black" stroke="black" points="201.08,-353.67 194.04,-361.59 204.48,-359.79 201.08,-353.67"/>
</g>
<!-- 9 -->
<g id="node9" class="node">
<title>9</title>
<ellipse fill="none" stroke="black" cx="175.3" cy="-234" rx="49.3" ry="18"/>
<text text-anchor="middle" x="175.3" y="-228.95" font-family="Times,serif" font-size="14.00">{ 0, 5, 7 }</text>
</g>
<!-- 4&#45;&gt;9 -->
<g id="edge11" class="edge">
<title>4&#45;&gt;9</title>
<path fill="none" stroke="black" d="M83.53,-285.99C104.11,-274.55 129.91,-260.22 148.91,-249.66"/>
<polygon fill="black" stroke="black" points="81.96,-282.85 74.92,-290.77 85.36,-288.97 81.96,-282.85"/>
</g>
<!-- 5&#45;&gt;6 -->
<g id="edge7" class="edge">
<title>5&#45;&gt;6</title>
<path fill="none" stroke="black" d="M254.84,-356.18C235.28,-345.32 211.77,-332.26 193.89,-322.33"/>
<polygon fill="black" stroke="black" points="252.89,-359.11 263.33,-360.9 256.29,-352.99 252.89,-359.11"/>
</g>
<!-- 5&#45;&gt;8 -->
<g id="edge10" class="edge">
<title>5&#45;&gt;8</title>
<path fill="none" stroke="black" d="M292.3,-348.24C292.3,-340.04 292.3,-331.37 292.3,-324.1"/>
<polygon fill="black" stroke="black" points="288.8,-348.18 292.3,-358.18 295.8,-348.18 288.8,-348.18"/>
</g>
<!-- 11 -->
<g id="node11" class="node">
<title>11</title>
<ellipse fill="none" stroke="black" cx="409.3" cy="-306" rx="49.3" ry="18"/>
<text text-anchor="middle" x="409.3" y="-300.95" font-family="Times,serif" font-size="14.00">{ 0, 2, 3 }</text>
</g>
<!-- 5&#45;&gt;11 -->
<g id="edge16" class="edge">
<title>5&#45;&gt;11</title>
<path fill="none" stroke="black" d="M328.02,-355.63C346.34,-344.67 368.18,-331.6 384.61,-321.77"/>
<polygon fill="black" stroke="black" points="326.35,-352.55 319.57,-360.69 329.95,-358.56 326.35,-352.55"/>
</g>
<!-- 7 -->
<g id="node7" class="node">
<title>7</title>
<ellipse fill="none" stroke="black" cx="58.3" cy="-234" rx="49.3" ry="18"/>
<text text-anchor="middle" x="58.3" y="-228.95" font-family="Times,serif" font-size="14.00">{ 0, 2, 5 }</text>
</g>
<!-- 6&#45;&gt;7 -->
<g id="edge8" class="edge">
<title>6&#45;&gt;7</title>
<path fill="none" stroke="black" d="M132.73,-283.24C116.18,-272.51 96.63,-259.84 81.72,-250.18"/>
<polygon fill="black" stroke="black" points="130.5,-285.97 140.8,-288.47 134.31,-280.09 130.5,-285.97"/>
</g>
<!-- 6&#45;&gt;9 -->
<g id="edge12" class="edge">
<title>6&#45;&gt;9</title>
<path fill="none" stroke="black" d="M169.97,-276.53C171.03,-268.24 172.16,-259.45 173.11,-252.1"/>
<polygon fill="black" stroke="black" points="166.53,-275.83 168.72,-286.2 173.47,-276.72 166.53,-275.83"/>
</g>
<!-- 12 -->
<g id="node12" class="node">
<title>12</title>
<ellipse fill="none" stroke="black" cx="292.3" cy="-234" rx="49.3" ry="18"/>
<text text-anchor="middle" x="292.3" y="-228.95" font-family="Times,serif" font-size="14.00">{ 0, 2, 7 }</text>
</g>
<!-- 6&#45;&gt;12 -->
<g id="edge18" class="edge">
<title>6&#45;&gt;12</title>
<path fill="none" stroke="black" d="M203.98,-284.07C223.98,-272.96 248.05,-259.59 266.01,-249.61"/>
<polygon fill="black" stroke="black" points="202.32,-280.99 195.28,-288.9 205.72,-287.11 202.32,-280.99"/>
</g>
<!-- 10 -->
<g id="node10" class="node">
<title>10</title>
<ellipse fill="none" stroke="black" cx="98.3" cy="-162" rx="39.58" ry="18"/>
<text text-anchor="middle" x="98.3" y="-156.95" font-family="Times,serif" font-size="14.00">{ 0, 5 }</text>
</g>
<!-- 7&#45;&gt;10 -->
<g id="edge14" class="edge">
<title>7&#45;&gt;10</title>
<path fill="none" stroke="black" d="M73.65,-206.14C78.72,-197.28 84.2,-187.68 88.71,-179.79"/>
<polygon fill="black" stroke="black" points="70.66,-204.32 68.74,-214.74 76.74,-207.79 70.66,-204.32"/>
</g>
<!-- 13 -->
<g id="node13" class="node">
<title>13</title>
<ellipse fill="none" stroke="black" cx="195.3" cy="-162" rx="39.58" ry="18"/>
<text text-anchor="middle" x="195.3" y="-156.95" font-family="Times,serif" font-size="14.00">{ 0, 2 }</text>
</g>
<!-- 7&#45;&gt;13 -->
<g id="edge19" class="edge">
<title>7&#45;&gt;13</title>
<path fill="none" stroke="black" d="M96.02,-213.73C119.55,-201.71 149.19,-186.56 169.93,-175.96"/>
<polygon fill="black" stroke="black" points="94.69,-210.48 87.38,-218.15 97.87,-216.71 94.69,-210.48"/>
</g>
<!-- 8&#45;&gt;9 -->
<g id="edge13" class="edge">
<title>8&#45;&gt;9</title>
<path fill="none" stroke="black" d="M257.67,-284.28C239.17,-273.21 216.83,-259.84 200.08,-249.82"/>
<polygon fill="black" stroke="black" points="255.81,-287.25 266.19,-289.38 259.41,-281.24 255.81,-287.25"/>
</g>
<!-- 14 -->
<g id="node14" class="node">
<title>14</title>
<ellipse fill="none" stroke="black" cx="399.3" cy="-234" rx="39.58" ry="18"/>
<text text-anchor="middle" x="399.3" y="-228.95" font-family="Times,serif" font-size="14.00">{ 0, 3 }</text>
</g>
<!-- 8&#45;&gt;14 -->
<g id="edge22" class="edge">
<title>8&#45;&gt;14</title>
<path fill="none" stroke="black" d="M325.11,-283.54C342.16,-272.39 362.51,-259.07 377.59,-249.21"/>
<polygon fill="black" stroke="black" points="323.24,-280.58 316.79,-288.98 327.07,-286.44 323.24,-280.58"/>
</g>
<!-- 9&#45;&gt;10 -->
<g id="edge15" class="edge">
<title>9&#45;&gt;10</title>
<path fill="none" stroke="black" d="M148.98,-209.07C137.93,-199.02 125.38,-187.61 115.54,-178.67"/>
<polygon fill="black" stroke="black" points="146.57,-211.61 156.33,-215.75 151.28,-206.43 146.57,-211.61"/>
</g>
<!-- 15 -->
<g id="node15" class="node">
<title>15</title>
<ellipse fill="none" stroke="black" cx="292.3" cy="-162" rx="39.58" ry="18"/>
<text text-anchor="middle" x="292.3" y="-156.95" font-family="Times,serif" font-size="14.00">{ 0, 7 }</text>
</g>
<!-- 9&#45;&gt;15 -->
<g id="edge25" class="edge">
<title>9&#45;&gt;15</title>
<path fill="none" stroke="black" d="M209.95,-212.27C229.04,-200.85 252.22,-186.98 269.12,-176.87"/>
<polygon fill="black" stroke="black" points="208.2,-209.24 201.42,-217.38 211.79,-215.25 208.2,-209.24"/>
</g>
<!-- 16 -->
<g id="node16" class="node">
<title>16</title>
<ellipse fill="none" stroke="black" cx="195.3" cy="-90" rx="44.19" ry="18"/>
<text text-anchor="middle" x="195.3" y="-84.95" font-family="Times,serif" font-size="14.00">{ 0, 11 }</text>
</g>
<!-- 10&#45;&gt;16 -->
<g id="edge27" class="edge">
<title>10&#45;&gt;16</title>
<path fill="none" stroke="black" d="M127.81,-139.71C142.87,-128.84 160.82,-115.88 174.43,-106.07"/>
<polygon fill="black" stroke="black" points="126.16,-136.58 120.1,-145.27 130.26,-142.26 126.16,-136.58"/>
</g>
<!-- 11&#45;&gt;12 -->
<g id="edge17" class="edge">
<title>11&#45;&gt;12</title>
<path fill="none" stroke="black" d="M374.67,-284.28C356.17,-273.21 333.83,-259.84 317.08,-249.82"/>
<polygon fill="black" stroke="black" points="372.81,-287.25 383.19,-289.38 376.41,-281.24 372.81,-287.25"/>
</g>
<!-- 11&#45;&gt;14 -->
<g id="edge21" class="edge">
<title>11&#45;&gt;14</title>
<path fill="none" stroke="black" d="M405.24,-276.53C404.05,-268.24 402.8,-259.45 401.75,-252.1"/>
<polygon fill="black" stroke="black" points="401.74,-276.79 406.62,-286.2 408.67,-275.8 401.74,-276.79"/>
</g>
<!-- 12&#45;&gt;13 -->
<g id="edge20" class="edge">
<title>12&#45;&gt;13</title>
<path fill="none" stroke="black" d="M261.84,-211.02C246.84,-200.19 229.14,-187.42 215.78,-177.77"/>
<polygon fill="black" stroke="black" points="259.39,-213.57 269.55,-216.58 263.49,-207.89 259.39,-213.57"/>
</g>
<!-- 12&#45;&gt;15 -->
<g id="edge23" class="edge">
<title>12&#45;&gt;15</title>
<path fill="none" stroke="black" d="M292.3,-204.24C292.3,-196.04 292.3,-187.37 292.3,-180.1"/>
<polygon fill="black" stroke="black" points="288.8,-204.18 292.3,-214.18 295.8,-204.18 288.8,-204.18"/>
</g>
<!-- 13&#45;&gt;16 -->
<g id="edge26" class="edge">
<title>13&#45;&gt;16</title>
<path fill="none" stroke="black" d="M195.3,-132.24C195.3,-124.04 195.3,-115.37 195.3,-108.1"/>
<polygon fill="black" stroke="black" points="191.8,-132.18 195.3,-142.18 198.8,-132.18 191.8,-132.18"/>
</g>
<!-- 14&#45;&gt;15 -->
<g id="edge24" class="edge">
<title>14&#45;&gt;15</title>
<path fill="none" stroke="black" d="M368.22,-212.67C350.91,-201.34 329.76,-187.5 314.19,-177.32"/>
<polygon fill="black" stroke="black" points="365.84,-215.29 376.13,-217.84 369.67,-209.43 365.84,-215.29"/>
</g>
<!-- 15&#45;&gt;16 -->
<g id="edge28" class="edge">
<title>15&#45;&gt;16</title>
<path fill="none" stroke="black" d="M262.8,-139.71C247.74,-128.84 229.79,-115.88 216.18,-106.07"/>
<polygon fill="black" stroke="black" points="260.35,-142.26 270.51,-145.27 264.44,-136.58 260.35,-142.26"/>
</g>
<!-- 17 -->
<g id="node17" class="node">
<title>17</title>
<ellipse fill="none" stroke="black" cx="195.3" cy="-18" rx="29.86" ry="18"/>
<text text-anchor="middle" x="195.3" y="-12.95" font-family="Times,serif" font-size="14.00">{ 0 }</text>
</g>
<!-- 16&#45;&gt;17 -->
<g id="edge29" class="edge">
<title>16&#45;&gt;17</title>
<path fill="none" stroke="black" d="M195.3,-60.24C195.3,-52.04 195.3,-43.37 195.3,-36.1"/>
<polygon fill="black" stroke="black" points="191.8,-60.18 195.3,-70.18 198.8,-60.18 191.8,-60.18"/>
</g>
</g>
</svg>
