<?xml version="1.0" encoding="UTF-8" standalone="no"?>
<!DOCTYPE svg PUBLIC "-//W3C//DTD SVG 1.1//EN"
 "http://www.w3.org/Graphics/SVG/1.1/DTD/svg11.dtd">
<!-- Generated by graphviz version 11.0.0 (20240428.1522)
 -->
<!-- Title: NSGraph Pages: 1 -->
<svg width="329pt" height="476pt"
 viewBox="0.00 0.00 329.05 476.00" xmlns="http://www.w3.org/2000/svg" xmlns:xlink="http://www.w3.org/1999/xlink">
<g id="graph0" class="graph" transform="scale(1 1) rotate(0) translate(4 472)">
<title>NSGraph</title>
<polygon fill="white" stroke="none" points="-4,4 -4,-472 325.05,-472 325.05,4 -4,4"/>
<!-- 1 -->
<g id="node1" class="node">
<title>1</title>
<ellipse fill="lightgrey" stroke="black" cx="149.53" cy="-450" rx="27.53" ry="18"/>
<text text-anchor="middle" x="149.53" y="-445.32" font-family="Times,serif" font-size="14.00">〈 1 〉</text>
</g>
<!-- 2 -->
<g id="node2" class="node">
<title>2</title>
<ellipse fill="lightgrey" stroke="black" cx="149.53" cy="-378" rx="37.53" ry="18"/>
<text text-anchor="middle" x="149.53" y="-373.32" font-family="Times,serif" font-size="14.00">〈 2, 3 〉</text>
</g>
<!-- 1&#45;&gt;2 -->
<g id="edge1" class="edge">
<title>1&#45;&gt;2</title>
<path fill="none" stroke="black" d="M149.53,-420.24C149.53,-412.04 149.53,-403.37 149.53,-396.1"/>
<polygon fill="black" stroke="black" points="146.03,-420.18 149.53,-430.18 153.03,-420.18 146.03,-420.18"/>
</g>
<!-- 3 -->
<g id="node3" class="node">
<title>3</title>
<ellipse fill="lightgrey" stroke="black" cx="98.53" cy="-306" rx="37.53" ry="18"/>
<text text-anchor="middle" x="98.53" y="-301.32" font-family="Times,serif" font-size="14.00">〈 2, 5 〉</text>
</g>
<!-- 2&#45;&gt;3 -->
<g id="edge2" class="edge">
<title>2&#45;&gt;3</title>
<path fill="none" stroke="black" d="M131.1,-351.7C124.16,-342.18 116.46,-331.61 110.29,-323.15"/>
<polygon fill="black" stroke="black" points="128.09,-353.52 136.81,-359.54 133.75,-349.4 128.09,-353.52"/>
</g>
<!-- 6 -->
<g id="node6" class="node">
<title>6</title>
<ellipse fill="lightgrey" stroke="black" cx="201.53" cy="-306" rx="47.53" ry="18"/>
<text text-anchor="middle" x="201.53" y="-301.32" font-family="Times,serif" font-size="14.00">〈 3, 4, 5 〉</text>
</g>
<!-- 2&#45;&gt;6 -->
<g id="edge3" class="edge">
<title>2&#45;&gt;6</title>
<path fill="none" stroke="black" d="M168.44,-351.55C175.35,-342.24 182.98,-331.97 189.17,-323.63"/>
<polygon fill="black" stroke="black" points="165.65,-349.44 162.49,-359.55 171.27,-353.61 165.65,-349.44"/>
</g>
<!-- 4 -->
<g id="node4" class="node">
<title>4</title>
<ellipse fill="lightgrey" stroke="black" cx="37.53" cy="-234" rx="37.53" ry="18"/>
<text text-anchor="middle" x="37.53" y="-229.32" font-family="Times,serif" font-size="14.00">〈 2, 7 〉</text>
</g>
<!-- 3&#45;&gt;4 -->
<g id="edge4" class="edge">
<title>3&#45;&gt;4</title>
<path fill="none" stroke="black" d="M77.19,-280.51C68.6,-270.66 58.95,-259.58 51.32,-250.82"/>
<polygon fill="black" stroke="black" points="74.48,-282.74 83.69,-287.97 79.76,-278.14 74.48,-282.74"/>
</g>
<!-- 8 -->
<g id="node8" class="node">
<title>8</title>
<ellipse fill="none" stroke="black" cx="150.53" cy="-234" rx="57.52" ry="18"/>
<text text-anchor="middle" x="150.53" y="-229.32" font-family="Times,serif" font-size="14.00">〈 4, 5, 6, 7 〉</text>
</g>
<!-- 3&#45;&gt;8 -->
<g id="edge5" class="edge">
<title>3&#45;&gt;8</title>
<path fill="none" stroke="black" d="M117.44,-279.55C124.35,-270.24 131.98,-259.97 138.17,-251.63"/>
<polygon fill="black" stroke="black" points="114.65,-277.44 111.49,-287.55 120.27,-281.61 114.65,-277.44"/>
</g>
<!-- 5 -->
<g id="node5" class="node">
<title>5</title>
<ellipse fill="lightgrey" stroke="black" cx="37.53" cy="-162" rx="37.53" ry="18"/>
<text text-anchor="middle" x="37.53" y="-157.32" font-family="Times,serif" font-size="14.00">〈 2, 9 〉</text>
</g>
<!-- 4&#45;&gt;5 -->
<g id="edge6" class="edge">
<title>4&#45;&gt;5</title>
<path fill="none" stroke="black" d="M37.53,-204.24C37.53,-196.04 37.53,-187.37 37.53,-180.1"/>
<polygon fill="black" stroke="black" points="34.03,-204.18 37.53,-214.18 41.03,-204.18 34.03,-204.18"/>
</g>
<!-- 10 -->
<g id="node10" class="node">
<title>10</title>
<ellipse fill="none" stroke="black" cx="263.53" cy="-162" rx="57.52" ry="18"/>
<text text-anchor="middle" x="263.53" y="-157.32" font-family="Times,serif" font-size="14.00">〈 4, 6, 7, 9 〉</text>
</g>
<!-- 4&#45;&gt;10 -->
<g id="edge7" class="edge">
<title>4&#45;&gt;10</title>
<path fill="none" stroke="black" d="M76.78,-218.29C79.06,-217.5 81.32,-216.73 83.53,-216 130.37,-200.47 184.81,-184.76 221.45,-174.52"/>
<polygon fill="black" stroke="black" points="75.8,-214.93 67.56,-221.58 78.15,-221.52 75.8,-214.93"/>
</g>
<!-- 11 -->
<g id="node11" class="node">
<title>11</title>
<ellipse fill="none" stroke="black" cx="140.53" cy="-90" rx="62.26" ry="18"/>
<text text-anchor="middle" x="140.53" y="-85.33" font-family="Times,serif" font-size="14.00">〈 4, 6, 9, 11 〉</text>
</g>
<!-- 5&#45;&gt;11 -->
<g id="edge8" class="edge">
<title>5&#45;&gt;11</title>
<path fill="none" stroke="black" d="M67.65,-140.53C83.33,-129.88 102.22,-117.04 116.83,-107.1"/>
<polygon fill="black" stroke="black" points="65.93,-137.47 59.62,-145.98 69.86,-143.26 65.93,-137.47"/>
</g>
<!-- 7 -->
<g id="node7" class="node">
<title>7</title>
<ellipse fill="lightgrey" stroke="black" cx="263.53" cy="-234" rx="37.53" ry="18"/>
<text text-anchor="middle" x="263.53" y="-229.32" font-family="Times,serif" font-size="14.00">〈 3, 4 〉</text>
</g>
<!-- 6&#45;&gt;7 -->
<g id="edge9" class="edge">
<title>6&#45;&gt;7</title>
<path fill="none" stroke="black" d="M223.71,-279.95C232.26,-270.3 241.78,-259.56 249.37,-250.99"/>
<polygon fill="black" stroke="black" points="221.24,-277.47 217.23,-287.28 226.48,-282.11 221.24,-277.47"/>
</g>
<!-- 6&#45;&gt;8 -->
<g id="edge10" class="edge">
<title>6&#45;&gt;8</title>
<path fill="none" stroke="black" d="M182.84,-279.34C176.19,-270.22 168.87,-260.17 162.88,-251.96"/>
<polygon fill="black" stroke="black" points="179.83,-281.17 188.55,-287.19 185.49,-277.04 179.83,-281.17"/>
</g>
<!-- 7&#45;&gt;10 -->
<g id="edge11" class="edge">
<title>7&#45;&gt;10</title>
<path fill="none" stroke="black" d="M263.53,-204.24C263.53,-196.04 263.53,-187.37 263.53,-180.1"/>
<polygon fill="black" stroke="black" points="260.03,-204.18 263.53,-214.18 267.03,-204.18 260.03,-204.18"/>
</g>
<!-- 9 -->
<g id="node9" class="node">
<title>9</title>
<ellipse fill="lightgrey" stroke="black" cx="140.53" cy="-162" rx="47.53" ry="18"/>
<text text-anchor="middle" x="140.53" y="-157.32" font-family="Times,serif" font-size="14.00">〈 4, 5, 6 〉</text>
</g>
<!-- 8&#45;&gt;9 -->
<g id="edge12" class="edge">
<title>8&#45;&gt;9</title>
<path fill="none" stroke="black" d="M146.46,-204.53C145.28,-196.24 144.02,-187.45 142.97,-180.1"/>
<polygon fill="black" stroke="black" points="142.96,-204.79 147.84,-214.2 149.89,-203.8 142.96,-204.79"/>
</g>
<!-- 8&#45;&gt;10 -->
<g id="edge13" class="edge">
<title>8&#45;&gt;10</title>
<path fill="none" stroke="black" d="M185.31,-211.45C202.51,-200.8 222.88,-188.18 238.52,-178.49"/>
<polygon fill="black" stroke="black" points="183.55,-208.43 176.89,-216.67 187.24,-214.38 183.55,-208.43"/>
</g>
<!-- 9&#45;&gt;11 -->
<g id="edge14" class="edge">
<title>9&#45;&gt;11</title>
<path fill="none" stroke="black" d="M140.53,-132.24C140.53,-124.04 140.53,-115.37 140.53,-108.1"/>
<polygon fill="black" stroke="black" points="137.03,-132.18 140.53,-142.18 144.03,-132.18 137.03,-132.18"/>
</g>
<!-- 10&#45;&gt;11 -->
<g id="edge15" class="edge">
<title>10&#45;&gt;11</title>
<path fill="none" stroke="black" d="M226.76,-140.07C207.86,-129.32 185.22,-116.44 167.88,-106.57"/>
<polygon fill="black" stroke="black" points="224.8,-142.99 235.22,-144.89 228.26,-136.9 224.8,-142.99"/>
</g>
<!-- 12 -->
<g id="node12" class="node">
<title>12</title>
<ellipse fill="lightgrey" stroke="black" cx="140.53" cy="-18" rx="47.53" ry="18"/>
<text text-anchor="middle" x="140.53" y="-13.32" font-family="Times,serif" font-size="14.00">〈 4, 6, 9 〉</text>
</g>
<!-- 11&#45;&gt;12 -->
<g id="edge16" class="edge">
<title>11&#45;&gt;12</title>
<path fill="none" stroke="black" d="M140.53,-60.24C140.53,-52.04 140.53,-43.37 140.53,-36.1"/>
<polygon fill="black" stroke="black" points="137.03,-60.18 140.53,-70.18 144.03,-60.18 137.03,-60.18"/>
</g>
</g>
</svg>
